<svg width="20" height="36" viewBox="0 0 20 36" fill="none" xmlns="http://www.w3.org/2000/svg">
<path fill-rule="evenodd" clip-rule="evenodd" d="M2.58551 35.0031C2.73677 34.9927 2.77528 34.994 2.92504 34.9682C3.26183 34.9101 3.58573 34.7825 3.87151 34.5949C4.01603 34.5002 4.14216 34.3899 4.26818 34.2723L19.2697 19.2703C19.3732 19.1594 19.4021 19.1341 19.4939 19.013C19.5971 18.877 19.6862 18.7303 19.7596 18.5761C20.0801 17.9021 20.0801 17.1024 19.7596 16.4284C19.6862 16.2741 19.5971 16.1275 19.4939 15.9915C19.4021 15.8705 19.3732 15.8451 19.2697 15.7343L4.26818 0.732347C4.15729 0.628833 4.13191 0.599829 4.0109 0.508067C3.69312 0.26691 3.31808 0.104139 2.92504 0.0362548C2.64439 -0.0120016 2.35599 -0.0120016 2.07533 0.0362548C1.85093 0.0750099 1.63204 0.144519 1.42639 0.242282C0.645315 0.613706 0.101511 1.38418 0.0130005 2.24455C-0.0218773 2.58459 0.013752 2.93089 0.117138 3.25668C0.203272 3.52809 0.335909 3.78425 0.507925 4.01103C0.59981 4.13217 0.628689 4.15742 0.732199 4.26831L13.9658 17.5023L0.732199 30.7363L0.615688 30.8611C0.520054 30.9786 0.4928 31.006 0.409542 31.133C0.253401 31.371 0.13839 31.6357 0.0710068 31.9122C0.0171261 32.1335 -0.00637627 32.362 0.0013752 32.5896C0.0308781 33.454 0.520927 34.2598 1.27475 34.6837C1.5229 34.8232 1.7948 34.9199 2.07533 34.9682C2.2251 34.994 2.2636 34.9927 2.41487 35.0031C2.47175 35.0031 2.52863 35.0031 2.58551 35.0031Z" fill="white"/>
</svg>
