<svg width="20" height="36" viewBox="0 0 20 36" fill="none" xmlns="http://www.w3.org/2000/svg">
<path fill-rule="evenodd" clip-rule="evenodd" d="M17.4145 -7.6958e-07C17.2632 0.0103752 17.2247 0.00912395 17.075 0.0348769C16.7382 0.0930091 16.4143 0.220653 16.1285 0.408175C15.984 0.50294 15.8578 0.613204 15.7318 0.730845L0.730326 15.7328C0.626816 15.8437 0.597938 15.869 0.506054 15.9901C0.402919 16.1261 0.313785 16.2728 0.240402 16.427C-0.0801299 17.101 -0.08013 17.9007 0.240402 18.5747C0.313784 18.729 0.402918 18.8756 0.506053 19.0116C0.597938 19.1326 0.626815 19.158 0.730326 19.2688L15.7318 34.2708C15.8427 34.3743 15.8681 34.4033 15.9891 34.495C16.3069 34.7362 16.6819 34.899 17.075 34.9669C17.3556 35.0151 17.644 35.0151 17.9247 34.9669C18.1491 34.9281 18.368 34.8586 18.5736 34.7608C19.3547 34.3894 19.8985 33.6189 19.987 32.7586C20.0219 32.4185 19.9862 32.0722 19.8829 31.7464C19.7967 31.475 19.6641 31.2189 19.4921 30.9921C19.4002 30.8709 19.3713 30.8457 19.2678 30.7348L6.03423 17.5008L19.2678 4.26681L19.3843 4.14204C19.48 4.02453 19.5072 3.99715 19.5905 3.87013C19.7466 3.6321 19.8616 3.36744 19.929 3.09091C19.9829 2.86963 20.0064 2.6411 19.9986 2.41357C19.9691 1.54908 19.4791 0.743347 18.7253 0.319416C18.4771 0.179897 18.2052 0.083259 17.9247 0.0348771C17.7749 0.00912405 17.7364 0.0103753 17.5851 -7.39741e-07C17.5283 -7.49687e-07 17.4714 -7.59634e-07 17.4145 -7.6958e-07Z" fill="white"/>
</svg>
