<svg width="7" height="12" viewBox="0 0 7 12" fill="none" xmlns="http://www.w3.org/2000/svg">
<path d="M6.94998 6C6.94998 6.13333 6.92898 6.25833 6.88698 6.375C6.84564 6.49167 6.77498 6.6 6.67498 6.7L2.04998 11.325C1.86664 11.5083 1.63731 11.5957 1.36198 11.587C1.08731 11.579 0.85831 11.4833 0.674976 11.3C0.491643 11.1167 0.399976 10.8833 0.399976 10.6C0.399976 10.3167 0.491643 10.0833 0.674976 9.9L4.57498 6L0.649975 2.075C0.466642 1.89167 0.378976 1.66233 0.386976 1.387C0.395643 1.11233 0.491643 0.883333 0.674976 0.7C0.858309 0.516666 1.09164 0.424998 1.37498 0.424998C1.65831 0.424998 1.89164 0.516666 2.07498 0.7L6.67498 5.3C6.77498 5.4 6.84564 5.50833 6.88698 5.625C6.92898 5.74167 6.94998 5.86667 6.94998 6Z" fill="#73FC6F"/>
</svg>
