<svg width="19" height="11" viewBox="0 0 19 11" fill="none" xmlns="http://www.w3.org/2000/svg">
<path fill-rule="evenodd" clip-rule="evenodd" d="M1.14226e-07 1.42219C0.00563251 1.50539 0.0049535 1.52657 0.0189325 1.60894C0.0504876 1.79419 0.119774 1.97236 0.221563 2.12955C0.273003 2.20904 0.332853 2.27842 0.396711 2.34773L8.53993 10.5993C8.60012 10.6562 8.61383 10.6721 8.67959 10.7226C8.75342 10.7794 8.83302 10.8284 8.91676 10.8687C9.28259 11.0451 9.71669 11.0451 10.0825 10.8687C10.1663 10.8284 10.2459 10.7794 10.3197 10.7226C10.3854 10.6721 10.3992 10.6562 10.4593 10.5993L18.6025 2.34773C18.6587 2.28674 18.6744 2.27278 18.7243 2.20622C18.8552 2.03142 18.9435 1.82514 18.9804 1.60894C19.0065 1.45457 19.0065 1.29594 18.9804 1.14156C18.9593 1.01814 18.9216 0.897732 18.8685 0.784616C18.6669 0.354987 18.2487 0.0558691 17.7817 0.00718497C17.5971 -0.0120001 17.4091 0.0075979 17.2323 0.0644645C17.085 0.111842 16.9459 0.184798 16.8228 0.279416C16.7571 0.329957 16.7433 0.345841 16.6832 0.402778L9.49961 7.68187L2.31607 0.402777L2.24834 0.338691C2.18456 0.286087 2.1697 0.271096 2.10075 0.2253C1.97154 0.139416 1.82788 0.0761545 1.67778 0.0390909C1.55766 0.00945452 1.43361 -0.00347349 1.31011 0.000789431C0.840857 0.0170171 0.403496 0.286568 0.173382 0.701208C0.0976506 0.837702 0.0451947 0.987261 0.0189325 1.14156C0.0049535 1.22394 0.00563252 1.24512 1.15345e-07 1.32832C1.14972e-07 1.35961 1.14599e-07 1.3909 1.14226e-07 1.42219Z" fill="white"/>
</svg>
