<svg width="32" height="32" viewBox="0 0 32 32" fill="none" xmlns="http://www.w3.org/2000/svg">
<path d="M11.8153 29.7766L11.8246 29.8031C13.0618 30.1443 14.3615 30.3304 15.7063 30.3304C17.0512 30.3304 18.3509 30.1443 19.5881 29.8031L19.5974 29.7766C18.3578 30.12 17.0535 30.3038 15.7063 30.3038C14.3592 30.3038 13.0549 30.12 11.8153 29.7766Z" fill="white"/>
<path d="M10.5862 2.03744L10.5608 2.0201C8.07699 2.95788 5.9135 4.55245 4.28308 6.59221L4.29118 6.61996C5.92391 4.57327 8.09318 2.97407 10.5851 2.03744H10.5862Z" fill="white"/>
<path d="M1.09961 16.3724C1.22218 19.091 2.09058 21.6187 3.50477 23.7544H3.53483C2.11486 21.6152 1.24299 19.0794 1.12389 16.3528L1.09961 16.3713V16.3724Z" fill="white"/>
<path d="M27.908 23.7544C29.3222 21.6175 30.1906 19.091 30.3132 16.3724L30.2889 16.3539C30.1698 19.0806 29.2991 21.6152 27.8779 23.7567H27.908V23.7544Z" fill="white"/>
<path d="M27.1216 6.61996L27.1297 6.59221C25.4993 4.55245 23.3369 2.95788 20.852 2.0201L20.8265 2.03744C23.3184 2.97407 25.4888 4.57327 27.1204 6.61996H27.1216Z" fill="white"/>
<path d="M19.5223 1.61655L19.5488 1.5992C18.3243 1.26502 17.0361 1.08348 15.7075 1.08348C14.3789 1.08348 13.0908 1.26502 11.8662 1.5992L11.8928 1.61655C13.1093 1.28699 14.3882 1.11008 15.7087 1.11008C17.0292 1.11008 18.3081 1.28699 19.5246 1.61655H19.5223Z" fill="black"/>
<path d="M20.0345 1.71368C19.0135 1.47547 16.7991 1.68824 15.7064 1.68824C14.6136 1.68824 12.8456 1.54023 11.8246 1.77843L15.7064 4.21944L20.0345 1.71368Z" fill="white"/>
<path d="M3.47824 7.70114C2.08718 9.81838 1.22918 12.316 1.10083 15.0022L1.12743 14.9814C1.25809 12.3149 2.10915 9.83572 3.48749 7.73121L3.47824 7.70114Z" fill="black"/>
<path d="M4.02636 6.41531C2.94288 8.20646 1.00141 14.32 0.814087 16.5135L4.78144 12.1565L4.02636 6.41531Z" fill="white"/>
<path d="M4.34781 24.8633H4.31543C5.93313 26.8719 8.07002 28.4445 10.5214 29.3776L10.511 29.3476C8.07812 28.4179 5.95626 26.8557 4.34781 24.8633Z" fill="black"/>
<path d="M3.69793 24.3719C5.09246 25.9781 10.2081 29.5476 12.1923 30.3894L8.95344 24.9998L3.69678 24.3719H3.69793Z" fill="white"/>
<path d="M20.9018 29.3476L20.8914 29.3777C23.3428 28.4445 25.4797 26.8719 27.0974 24.8622H27.065C25.4554 26.8557 23.3335 28.4179 20.9018 29.3476Z" fill="black"/>
<path d="M21.1619 28.6202C23.1473 27.7784 24.8991 26.4914 26.2936 24.8865L22.4593 25.0009L21.163 28.6214L21.1619 28.6202Z" fill="white"/>
<path d="M26.6325 12.1564L29.6736 14.5073C29.4875 12.3126 28.7937 10.2612 27.709 8.47008L26.6313 12.1564H26.6325Z" fill="white"/>
<path d="M30.312 15.0022C30.1836 12.316 29.3256 9.81838 27.9345 7.70114L27.9253 7.73121C29.3036 9.83572 30.1535 12.3149 30.2854 14.9814L30.312 15.0022Z" fill="black"/>
<path d="M10.9272 14.6981L12.7531 20.3167H18.6608L20.4854 14.6981L15.7063 11.2256L10.9272 14.6981Z" fill="white"/>
<path d="M15.7064 0C7.0455 0 0 7.0455 0 15.7064C0 24.3673 7.0455 31.4128 15.7064 31.4128C24.3673 31.4128 31.4128 24.3673 31.4128 15.7064C31.4128 7.0455 24.3673 0 15.7064 0ZM28.2132 24.2875C28.1924 24.3176 28.1704 24.3476 28.1485 24.3777C28.0721 24.4875 27.9935 24.5962 27.9149 24.7038C27.8605 24.7778 27.805 24.8518 27.7484 24.9246C27.6848 25.0079 27.62 25.0911 27.5541 25.1732C27.4882 25.2565 27.4211 25.3386 27.3529 25.4195C27.2801 25.5074 27.2061 25.593 27.1309 25.6797C27.0731 25.7468 27.0141 25.8127 26.954 25.8786C26.8603 25.9815 26.7655 26.0844 26.6695 26.185C26.6129 26.244 26.5562 26.3018 26.4984 26.3596C26.4024 26.4568 26.3053 26.5539 26.2058 26.6487C26.155 26.6973 26.1029 26.7458 26.0509 26.7944C25.9387 26.8996 25.8242 27.0025 25.7086 27.1043C25.6843 27.1263 25.66 27.1482 25.6358 27.1691C25.4843 27.2997 25.3293 27.4281 25.1732 27.553C25.1594 27.5634 25.1466 27.5749 25.1328 27.5853C24.9639 27.7195 24.7928 27.849 24.6182 27.9762C24.6182 27.9762 24.6182 27.9762 24.617 27.9762C22.1147 29.7962 19.0354 30.8716 15.7041 30.8716C12.3727 30.8716 9.2934 29.7974 6.79111 27.9762C6.79111 27.9762 6.79111 27.9762 6.78995 27.9762C6.61535 27.849 6.44421 27.7195 6.27654 27.5853C6.26267 27.5749 6.24995 27.5634 6.23607 27.553C6.07997 27.4281 5.92502 27.2997 5.77354 27.1691C5.74926 27.1471 5.72497 27.1251 5.70069 27.1043C5.58506 27.0025 5.47174 26.8996 5.35957 26.7944C5.30754 26.7458 5.25551 26.6973 5.20347 26.6476C5.10518 26.5527 5.00805 26.4568 4.91208 26.3596C4.85426 26.3018 4.7976 26.2428 4.74094 26.1839C4.64496 26.0833 4.55015 25.9815 4.45648 25.8786C4.39635 25.8127 4.33854 25.7456 4.27957 25.6797C4.2044 25.5941 4.1304 25.5074 4.05755 25.4195C3.98933 25.3386 3.92342 25.2565 3.85751 25.1744C3.7916 25.0923 3.72684 25.009 3.66324 24.9258C3.60774 24.8529 3.55108 24.7789 3.49673 24.7049C3.41695 24.5974 3.33947 24.4887 3.26315 24.3788C3.24234 24.3488 3.21921 24.3199 3.1984 24.2886H3.20071C1.59457 21.9529 0.625573 19.1453 0.545786 16.1157L0.543474 16.118C0.52266 15.3572 0.559662 14.5894 0.656794 13.8193C0.662575 13.7742 0.668357 13.7302 0.674138 13.6851C0.682233 13.6262 0.690327 13.5683 0.698421 13.5094C0.709985 13.4307 0.721548 13.3509 0.734267 13.2723C0.73658 13.2596 0.738893 13.2457 0.741205 13.233C1.04648 11.3736 1.68939 9.62873 2.6052 8.06307C2.6133 8.04919 2.62139 8.03531 2.62949 8.02144C2.72893 7.85262 2.83184 7.68495 2.93707 7.51959C2.9521 7.49531 2.96829 7.47218 2.98448 7.4479C3.06889 7.31839 3.15446 7.1912 3.24234 7.064C3.27356 7.02006 3.30363 6.97496 3.33485 6.93102C3.42157 6.80845 3.51176 6.68704 3.60311 6.56678C3.62855 6.53209 3.65284 6.4974 3.67943 6.46387V6.46734C6.11928 3.30016 9.7779 1.12395 13.9546 0.642918C13.9996 0.637136 14.0459 0.632511 14.0922 0.626729C14.1546 0.619791 14.2182 0.61401 14.2806 0.608228C14.3396 0.602446 14.3974 0.597821 14.4564 0.592039C14.5131 0.587414 14.5697 0.582789 14.6275 0.57932C14.6946 0.574694 14.7617 0.570069 14.8287 0.5666C14.8796 0.563131 14.9305 0.560818 14.9825 0.558506C15.0612 0.555037 15.1398 0.551568 15.2184 0.549255C15.26 0.548099 15.3017 0.545786 15.3433 0.54463C15.4647 0.542317 15.5861 0.540005 15.7075 0.540005C15.829 0.540005 15.9504 0.542317 16.0718 0.54463C16.1134 0.54463 16.155 0.546943 16.1967 0.549255C16.2753 0.551568 16.3539 0.555037 16.4326 0.558506C16.4834 0.560818 16.5355 0.564287 16.5864 0.5666C16.6534 0.570069 16.7205 0.574694 16.7887 0.57932C16.8454 0.582789 16.902 0.587414 16.9587 0.592039C17.0177 0.596665 17.0766 0.602446 17.1356 0.608228C17.198 0.61401 17.2616 0.619791 17.3241 0.626729C17.3703 0.631354 17.4154 0.637136 17.4617 0.642918C21.6372 1.12395 25.297 3.30016 27.7333 6.46618V6.46271C27.7599 6.49624 27.7842 6.53209 27.8108 6.56562C27.9022 6.68588 27.9912 6.80614 28.0791 6.92987C28.1103 6.97381 28.1404 7.0189 28.1716 7.06284C28.2595 7.18888 28.3462 7.31724 28.4294 7.44674C28.4445 7.47103 28.4607 7.49415 28.4757 7.51728C28.5821 7.68264 28.6838 7.8503 28.7833 8.01913C28.7914 8.033 28.7995 8.04688 28.8076 8.06075C29.7234 9.62758 30.3663 11.3725 30.6716 13.2318C30.6739 13.2446 30.6762 13.2573 30.6785 13.2712C30.6912 13.3498 30.7039 13.4284 30.7144 13.5082C30.7224 13.5672 30.7305 13.625 30.7386 13.684C30.7444 13.7291 30.7502 13.773 30.756 13.8181C30.8531 14.5882 30.8901 15.356 30.8693 16.1169L30.867 16.1146C30.7872 19.1441 29.8182 21.9517 28.2121 24.2875H28.2144H28.2132Z" fill="white"/>
<path d="M15.2173 0.550418C15.2589 0.549261 15.3006 0.546948 15.3422 0.545792C15.3006 0.545792 15.2589 0.548105 15.2173 0.550418Z" fill="black"/>
<path d="M6.79222 27.975C6.61761 27.8478 6.44648 27.7171 6.27881 27.5842C6.44763 27.7183 6.61877 27.8478 6.79222 27.975Z" fill="black"/>
<path d="M14.0911 0.627881C14.1535 0.620941 14.2171 0.615158 14.2796 0.609375C14.2171 0.615158 14.1535 0.620941 14.0911 0.627881Z" fill="black"/>
<path d="M27.3217 7.86533C27.1933 7.67454 27.0592 7.48837 26.9216 7.30451L25.5594 11.9645L21.1897 13.8701L16.2475 10.2797V5.16068L20.2369 2.43985C20.0195 2.36584 19.8009 2.29646 19.5789 2.23286L15.7052 4.87507L11.8315 2.23286C11.6095 2.29646 11.391 2.36584 11.1736 2.43985L15.1629 5.16068V10.2797L10.2208 13.8701L5.851 11.9645L4.48885 7.30451C4.35125 7.48837 4.21711 7.67454 4.08876 7.86533L5.40235 12.3588L1.69516 15.2254C1.68938 15.3849 1.68591 15.5457 1.68591 15.7064C1.68591 15.7758 1.68707 15.8451 1.68823 15.9145L5.47982 12.9832L9.84842 14.8889L11.7494 20.7399L9.09103 23.9209L4.24833 23.7764C4.38131 23.9649 4.51891 24.1499 4.65999 24.3303L9.33733 24.4702L10.918 28.8839C11.1343 28.9625 11.3516 29.0354 11.5725 29.1036L9.95134 24.5789L12.6097 21.399H18.8897L21.4579 24.5731L19.8356 29.1036C20.0565 29.0354 20.2739 28.9625 20.4901 28.8839L22.0708 24.4702L26.7481 24.3303C26.8904 24.1487 27.0268 23.9637 27.1598 23.7764L22.3217 23.9209L19.6841 20.6601L21.5585 14.89L25.9271 12.9844L29.7187 15.9157C29.7187 15.8463 29.7211 15.7769 29.7211 15.7064C29.7211 15.5457 29.7176 15.3849 29.7118 15.2254L26.0046 12.3588L27.3182 7.86533H27.3217ZM19.0539 20.8578H12.3588L10.2901 14.4911L15.7064 10.5561L21.1226 14.4911L19.0539 20.8578Z" fill="white"/>
<path d="M14.4564 0.593182C14.5131 0.588556 14.5698 0.583929 14.6276 0.58046C14.5709 0.583929 14.5143 0.588556 14.4564 0.593182Z" fill="black"/>
<path d="M14.8287 0.567758C14.8796 0.564288 14.9305 0.561975 14.9826 0.559662C14.9317 0.561975 14.8796 0.565445 14.8287 0.567758Z" fill="black"/>
<path d="M20.2427 29.5811C20.0299 29.6505 19.8149 29.7164 19.5975 29.7766L19.5882 29.8032C18.3509 30.1443 17.0512 30.3304 15.7064 30.3304C14.3616 30.3304 13.0619 30.1443 11.8246 29.8032L11.8154 29.7766C11.598 29.7164 11.3829 29.6517 11.1702 29.5811L11.4107 30.253C9.79644 29.7766 8.2354 29.0238 6.79346 27.9762C9.29575 29.7962 12.375 30.8716 15.7064 30.8716C19.0378 30.8716 22.1171 29.7974 24.6194 27.9762C23.1786 29.0226 21.6164 29.7754 20.0022 30.253L20.2427 29.5811Z" fill="white"/>
<path d="M30.6761 13.2712C30.6888 13.3495 30.7003 13.429 30.7119 13.5073C30.7003 13.4278 30.6888 13.3495 30.6761 13.2712Z" fill="black"/>
<path d="M17.1333 0.609375C17.1958 0.615158 17.2594 0.620941 17.3218 0.627881C17.2594 0.620941 17.1958 0.615158 17.1333 0.609375Z" fill="black"/>
<path d="M28.4734 7.51845C28.5786 7.6838 28.6815 7.85031 28.781 8.02029C28.6815 7.85147 28.5786 7.6838 28.4734 7.51845Z" fill="black"/>
<path d="M16.7864 0.58046C16.8431 0.583929 16.8997 0.588556 16.9564 0.593182C16.8997 0.588556 16.8431 0.583929 16.7864 0.58046Z" fill="black"/>
<path d="M28.1681 7.06287C28.256 7.18891 28.3427 7.31726 28.426 7.44677C28.3415 7.31726 28.256 7.19006 28.1681 7.06287Z" fill="black"/>
<path d="M16.0706 0.545792C16.1122 0.545792 16.1538 0.548105 16.1955 0.550418C16.1538 0.549261 16.1122 0.546948 16.0706 0.545792Z" fill="black"/>
<path d="M3.53488 23.7556H3.50482C2.09063 21.6175 1.22223 19.0909 1.09966 16.3724L1.12394 16.3539C1.11469 16.14 1.10891 15.9249 1.10891 15.7075C1.10891 15.6983 1.10891 15.689 1.10891 15.6798L0.545776 16.1146C0.625563 19.1441 1.59456 21.9517 3.2007 24.2875L3.91994 24.3094C3.78696 24.1279 3.65861 23.944 3.53372 23.7556H3.53488Z" fill="white"/>
<path d="M16.4314 0.559662C16.4823 0.561975 16.5343 0.565445 16.5852 0.567758C16.5343 0.564288 16.4834 0.561975 16.4314 0.559662Z" fill="black"/>
<path d="M30.3038 15.6798C30.3038 15.689 30.3038 15.6983 30.3038 15.7075C30.3038 15.9238 30.298 16.1388 30.2888 16.3539L29.9789 16.6349C29.8563 19.3534 29.3117 21.0336 27.8975 23.1705L27.6154 23.7105C27.4905 23.8978 27.6258 24.1291 27.4928 24.3095L28.4121 24.3349C30.0182 21.9991 31.0219 18.4052 31.1017 15.3757L30.3038 15.6798Z" fill="white"/>
<path d="M30.7375 13.6828C30.7433 13.7279 30.7491 13.7719 30.7549 13.817C30.7491 13.7719 30.7433 13.7279 30.7375 13.6828Z" fill="black"/>
<path d="M25.135 27.5842C24.9674 27.7171 24.7962 27.8478 24.6205 27.975C24.7951 27.8478 24.9662 27.7183 25.135 27.5842Z" fill="black"/>
<path d="M0.659058 13.817C0.664841 13.7719 0.670624 13.7279 0.676407 13.6828C0.670624 13.7279 0.664841 13.7719 0.659058 13.817Z" fill="black"/>
<path d="M5.20582 26.6464C5.10638 26.5516 5.0104 26.4556 4.91443 26.3584C5.0104 26.4556 5.10754 26.5516 5.20582 26.6464Z" fill="black"/>
<path d="M26.4996 26.3584C26.4036 26.4556 26.3065 26.5527 26.207 26.6475C26.3053 26.5527 26.4036 26.4567 26.4996 26.3584Z" fill="black"/>
<path d="M27.3529 25.4184C27.28 25.5051 27.206 25.5918 27.1309 25.6786C27.206 25.593 27.28 25.5063 27.3529 25.4184Z" fill="black"/>
<path d="M4.29112 6.61998L4.28303 6.59223C5.91345 4.55247 8.07578 2.95789 10.5607 2.02011L10.5862 2.03746C10.7955 1.95883 11.0082 1.88482 11.2221 1.81544L10.6324 1.41304C11.6916 1.03724 12.8028 0.775907 13.9545 0.642929C9.77789 1.12396 5.94004 3.16372 3.50366 6.32974L3.88409 7.15536C4.01591 6.97382 4.15236 6.79459 4.29228 6.61998H4.29112Z" fill="white"/>
<path d="M30.6693 13.2319C30.364 11.3725 29.7211 9.62758 28.8053 8.06076C29.3407 8.97888 29.787 9.96639 30.1293 11.0198C30.3675 11.7541 30.5467 12.493 30.6693 13.2319Z" fill="black"/>
<path d="M6.23841 27.5518C6.08115 27.4257 5.92736 27.2985 5.77588 27.1679C5.92736 27.2985 6.08115 27.4269 6.23841 27.5518Z" fill="black"/>
<path d="M26.9551 25.8774C26.8614 25.9803 26.7678 26.0821 26.6707 26.1839C26.7666 26.0833 26.8614 25.9815 26.9551 25.8774Z" fill="black"/>
<path d="M0.700684 13.5073C0.712202 13.429 0.723721 13.3507 0.736392 13.2712C0.723721 13.3495 0.711051 13.4278 0.700684 13.5073Z" fill="black"/>
<path d="M27.8085 6.5668C27.8987 6.68706 27.9889 6.80732 28.0767 6.93105C27.99 6.80848 27.8998 6.68706 27.8085 6.5668Z" fill="black"/>
<path d="M4.28183 25.6786C4.20667 25.593 4.13266 25.5063 4.05981 25.4184C4.13266 25.5063 4.20667 25.593 4.28183 25.6786Z" fill="black"/>
<path d="M28.1496 24.3765C28.0733 24.4864 27.9946 24.5951 27.916 24.7026C27.9958 24.5951 28.0733 24.4864 28.1496 24.3765Z" fill="black"/>
<path d="M3.85794 25.1711C3.79229 25.0893 3.72778 25.0064 3.66443 24.9234C3.72778 25.0064 3.79229 25.0893 3.85794 25.1711Z" fill="black"/>
<path d="M3.49786 24.7038C3.41807 24.5962 3.3406 24.4875 3.26428 24.3777C3.3406 24.4875 3.41923 24.5962 3.49786 24.7038Z" fill="black"/>
<path d="M27.7476 24.9234C27.6842 25.0064 27.6197 25.0893 27.5541 25.1711C27.6197 25.0893 27.6842 25.0064 27.7476 24.9234Z" fill="black"/>
<path d="M4.7421 26.1839C4.64612 26.0833 4.5513 25.9815 4.45764 25.8786C4.5513 25.9815 4.64612 26.0833 4.7421 26.1839Z" fill="black"/>
<path d="M26.0532 26.7932C25.941 26.8973 25.8277 27.0014 25.7109 27.1031C25.8266 27.0014 25.9399 26.8985 26.0532 26.7932Z" fill="black"/>
<path d="M2.60753 8.06192C1.69172 9.62759 1.0488 11.3736 0.74353 13.2319C0.866101 12.493 1.04533 11.7552 1.28353 11.021C1.62581 9.96755 2.07215 8.98004 2.60753 8.06192Z" fill="black"/>
<path d="M3.33716 6.93105C3.42388 6.80848 3.51408 6.68706 3.60543 6.5668C3.51408 6.68706 3.42504 6.80732 3.33716 6.93105Z" fill="black"/>
<path d="M2.98682 7.44677C3.07123 7.31726 3.1568 7.19006 3.24468 7.06287C3.1568 7.18891 3.07007 7.31726 2.98682 7.44677Z" fill="black"/>
<path d="M5.70293 27.1031C5.5873 27.0014 5.47398 26.8985 5.36182 26.7932C5.47398 26.8985 5.5873 27.0014 5.70293 27.1031Z" fill="black"/>
<path d="M20.1918 1.81544C20.4057 1.88482 20.6173 1.95883 20.8278 2.03746L20.8532 2.02011C23.337 2.95789 25.5005 4.55247 27.1309 6.59223L27.1228 6.61998C27.2628 6.79574 27.398 6.97382 27.531 7.15536L27.7322 6.46619C25.2958 3.30017 21.6361 1.12396 17.4606 0.642929C18.6123 0.775907 19.7247 1.03724 20.7827 1.41304L20.193 1.81544H20.1918Z" fill="white"/>
<path d="M2.63293 8.02029C2.73238 7.85031 2.83529 7.6838 2.94052 7.51845C2.83414 7.6838 2.73238 7.85147 2.63293 8.02029Z" fill="black"/>
<path d="M25.6381 27.1679C25.4877 27.2985 25.3328 27.4269 25.1755 27.5518C25.3316 27.4269 25.4866 27.2985 25.6381 27.1679Z" fill="black"/>
<path d="M16.5852 0.567764C16.652 0.57122 16.7188 0.575827 16.7868 0.580435C16.72 0.575827 16.6532 0.57122 16.5852 0.567764Z" fill="black"/>
<path d="M14.2806 0.609393C14.3396 0.60361 14.3975 0.598984 14.4564 0.593201C14.3975 0.597827 14.3385 0.60361 14.2806 0.609393Z" fill="black"/>
<path d="M13.9546 0.642917C13.9997 0.637134 14.046 0.632507 14.0922 0.626724C14.046 0.631351 14.0009 0.637134 13.9546 0.642917Z" fill="black"/>
<path d="M17.3218 0.626724C17.368 0.631351 17.4131 0.637134 17.4594 0.642917C17.4131 0.637134 17.368 0.632507 17.3218 0.626724Z" fill="black"/>
<path d="M14.9825 0.55963C15.0609 0.556174 15.1392 0.552719 15.2175 0.550415C15.1392 0.552719 15.0609 0.556174 14.9825 0.55963Z" fill="black"/>
<path d="M15.7064 0.541153C15.8278 0.541153 15.9492 0.543466 16.0707 0.545778C15.9492 0.543466 15.8278 0.541153 15.7064 0.541153Z" fill="black"/>
<path d="M16.1956 0.550415C16.2739 0.552719 16.3522 0.556174 16.4305 0.55963C16.3522 0.556174 16.2739 0.552719 16.1956 0.550415Z" fill="black"/>
<path d="M14.6263 0.580435C14.6932 0.575827 14.76 0.57122 14.8268 0.567764C14.76 0.57122 14.6932 0.575827 14.6263 0.580435Z" fill="black"/>
<path d="M16.9575 0.593201C17.0165 0.597827 17.0755 0.60361 17.1345 0.609393C17.0755 0.60361 17.0165 0.598984 16.9575 0.593201Z" fill="black"/>
<path d="M15.3422 0.545778C15.4636 0.543466 15.585 0.541153 15.7064 0.541153C15.585 0.541153 15.4636 0.543466 15.3422 0.545778Z" fill="black"/>
<path d="M11.221 1.81544C11.4419 1.74374 11.665 1.67783 11.8905 1.61655L11.8639 1.5992C13.0885 1.26503 14.3766 1.08348 15.7052 1.08348C17.0339 1.08348 18.322 1.26503 19.5466 1.5992L19.52 1.61655C19.7454 1.67783 19.9686 1.74374 20.1895 1.81544L20.7792 1.41304C19.7212 1.03723 18.6088 0.775899 17.4571 0.642922C17.4108 0.63714 17.3657 0.632515 17.3195 0.626733C17.257 0.619795 17.1934 0.614013 17.131 0.608232C17.072 0.60245 17.013 0.597825 16.9541 0.592043C16.8974 0.587418 16.8407 0.582793 16.7841 0.579324C16.717 0.574698 16.65 0.570073 16.5817 0.566604C16.5309 0.563135 16.48 0.560822 16.4279 0.55851C16.3493 0.555041 16.2707 0.551572 16.1921 0.549259C16.1504 0.548103 16.1088 0.54579 16.0672 0.544634C15.9458 0.542321 15.8243 0.540009 15.7029 0.540009C15.5815 0.540009 15.4601 0.542321 15.3387 0.544634C15.2971 0.544634 15.2554 0.546946 15.2138 0.549259C15.1352 0.551572 15.0565 0.555041 14.9779 0.55851C14.927 0.560822 14.875 0.564291 14.8241 0.566604C14.757 0.570073 14.69 0.574698 14.6229 0.579324C14.5663 0.582793 14.5096 0.587418 14.4518 0.592043C14.3928 0.596669 14.3338 0.60245 14.276 0.608232C14.2136 0.614013 14.15 0.619795 14.0875 0.626733C14.0413 0.631358 13.9962 0.63714 13.9499 0.642922C12.7982 0.775899 11.6858 1.03723 10.6278 1.41304L11.2175 1.81544H11.221Z" fill="white"/>
<path d="M19.58 2.23287C19.3499 2.16696 19.1186 2.10568 18.8839 2.05133L15.7052 4.21829L12.5264 2.05133C12.2917 2.10568 12.0604 2.16696 11.8303 2.23287L15.704 4.87508L19.5777 2.23287H19.58Z" fill="white"/>
<path d="M3.24585 7.06288C3.27708 7.01893 3.30715 6.97382 3.33838 6.92987C3.30715 6.97382 3.27708 7.01893 3.24585 7.06288Z" fill="black"/>
<path d="M3.6818 6.46388C3.6552 6.49742 3.63091 6.53328 3.60547 6.56682C3.63091 6.53328 3.65636 6.49973 3.68296 6.46619V6.46272L3.6818 6.46388Z" fill="black"/>
<path d="M2.60754 8.06318C2.61589 8.04888 2.62424 8.03457 2.63258 8.02026C2.62424 8.03457 2.61589 8.04888 2.60754 8.06318Z" fill="black"/>
<path d="M2.94055 7.51846C2.95559 7.49417 2.97178 7.47104 2.98797 7.44675C2.97294 7.47104 2.95674 7.49417 2.94055 7.51846Z" fill="black"/>
<path d="M0.676392 13.684C0.684488 13.625 0.692584 13.5672 0.70068 13.5082C0.692584 13.5672 0.684488 13.625 0.676392 13.684Z" fill="black"/>
<path d="M0.737671 13.2724C0.740055 13.2593 0.74244 13.245 0.744824 13.2318C0.74244 13.245 0.740055 13.2593 0.737671 13.2724Z" fill="black"/>
<path d="M0.659087 13.8169C0.561956 14.587 0.524954 15.3549 0.545767 16.1157L0.54808 16.1134C0.544611 15.9781 0.542299 15.8417 0.542299 15.7052C0.542299 15.0658 0.58277 14.4344 0.659087 13.8158V13.8169Z" fill="black"/>
<path d="M4.09111 7.86533C3.95697 8.06306 3.82746 8.26542 3.70374 8.47124L4.78143 12.1576L1.74029 14.5084C1.72064 14.7455 1.7056 14.9848 1.69751 15.2253L5.40469 12.3588L4.09111 7.86533Z" fill="white"/>
<path d="M1.12746 14.9814L1.10086 15.0022C1.22922 12.316 2.08721 9.81837 3.47827 7.70113L3.48752 7.7312C3.61472 7.53578 3.7477 7.34498 3.88414 7.1565L3.68294 6.46733C3.6575 6.50086 3.63091 6.5344 3.60547 6.56793C3.51527 6.68819 3.42508 6.80845 3.3372 6.93217C3.30598 6.97611 3.27591 7.02121 3.24469 7.06515C3.15681 7.19119 3.07009 7.31954 2.98683 7.44905C2.9718 7.47333 2.95561 7.49646 2.93942 7.52074C2.8342 7.68494 2.73128 7.85261 2.63184 8.02259C2.62375 8.03647 2.61565 8.05034 2.60756 8.06422C2.07218 8.98234 1.62584 9.96984 1.28356 11.0233C1.04536 11.7575 0.86613 12.4964 0.743559 13.2342C0.741247 13.2469 0.738934 13.2608 0.736621 13.2735C0.723902 13.3521 0.712338 13.4307 0.700775 13.5105C0.692681 13.5695 0.684587 13.6273 0.676492 13.6863C0.670711 13.7314 0.664929 13.7753 0.659147 13.8204C0.581673 14.439 0.542358 15.0704 0.542358 15.7099C0.542358 15.8463 0.544671 15.9827 0.54814 16.118L1.11127 15.6833C1.11127 15.4497 1.11821 15.2161 1.12862 14.9848L1.12746 14.9814Z" fill="white"/>
<path d="M6.79463 27.9774C6.79463 27.9774 6.79463 27.9774 6.79702 27.9774C6.79702 27.9774 6.79463 27.9774 6.79224 27.975L6.79463 27.9774Z" fill="black"/>
<path d="M6.27891 27.5852C6.2646 27.5744 6.25149 27.5625 6.23718 27.5518C6.25149 27.5625 6.2646 27.5744 6.27891 27.5852Z" fill="black"/>
<path d="M4.4581 25.8767C4.3982 25.811 4.34061 25.7442 4.28186 25.6786C4.33945 25.7454 4.3982 25.811 4.4581 25.8767Z" fill="black"/>
<path d="M3.6638 24.9226C3.60851 24.8501 3.55206 24.7764 3.49792 24.7026C3.55206 24.7764 3.60735 24.8501 3.6638 24.9226Z" fill="black"/>
<path d="M4.05914 25.4174C3.99118 25.3368 3.92552 25.255 3.85986 25.1732C3.92552 25.255 3.99233 25.3368 4.05914 25.4174Z" fill="black"/>
<path d="M5.36073 26.7933C5.30868 26.7447 5.25664 26.6961 5.20459 26.6464C5.25548 26.6961 5.30753 26.7447 5.36073 26.7933Z" fill="black"/>
<path d="M5.77587 27.1679C5.75158 27.1471 5.72729 27.124 5.703 27.1031C5.72729 27.1251 5.75158 27.1471 5.77587 27.1679Z" fill="black"/>
<path d="M3.19958 24.2875C3.2204 24.3175 3.24238 24.3476 3.26435 24.3777C3.24354 24.3476 3.22272 24.3175 3.2019 24.2875H3.19958Z" fill="black"/>
<path d="M4.91324 26.3585C4.85541 26.3007 4.79874 26.2417 4.74207 26.1827C4.79874 26.2417 4.85541 26.2995 4.91324 26.3585Z" fill="black"/>
<path d="M11.1702 29.5812C10.9481 29.5083 10.7284 29.4308 10.511 29.3476L10.5215 29.3776C8.07004 28.4445 5.93315 26.8719 4.31545 24.8622H4.34782C4.20097 24.6818 4.05874 24.4968 3.92114 24.3083L3.2019 24.2863C3.22272 24.3164 3.24353 24.3465 3.26435 24.3765C3.34066 24.4864 3.41929 24.5951 3.49792 24.7026C3.55227 24.7766 3.60777 24.8506 3.66443 24.9235C3.72803 25.0067 3.79279 25.09 3.8587 25.1721C3.92461 25.2542 3.99168 25.3363 4.05874 25.4172C4.13159 25.5051 4.2056 25.5918 4.28076 25.6774C4.33973 25.7445 4.39755 25.8104 4.45767 25.8763C4.55134 25.9792 4.645 26.081 4.74213 26.1816C4.79879 26.2405 4.85545 26.2983 4.91327 26.3573C5.00924 26.4544 5.10637 26.5504 5.20466 26.6452C5.25554 26.695 5.30873 26.7435 5.36077 26.7921C5.47293 26.8962 5.58625 27.0002 5.70188 27.102C5.72617 27.124 5.75045 27.1459 5.77473 27.1667C5.92505 27.2974 6.08 27.4246 6.23726 27.5506C6.25114 27.561 6.26386 27.5726 6.27773 27.583C6.4454 27.716 6.61654 27.8467 6.79114 27.9739C6.79114 27.9739 6.7923 27.9739 6.79345 27.975C8.23424 29.0215 9.79643 29.7743 11.4107 30.2518L11.1702 29.58V29.5812Z" fill="white"/>
<path d="M4.66235 24.3303C4.81036 24.5188 4.963 24.7049 5.12026 24.8853L8.95464 24.9998L10.2509 28.6202C10.4717 28.7139 10.6949 28.8018 10.9204 28.8839L9.33969 24.4702L4.66235 24.3303Z" fill="white"/>
<path d="M27.1313 25.6786C27.0726 25.7454 27.015 25.811 26.9551 25.8767C27.015 25.811 27.0726 25.7442 27.1313 25.6786Z" fill="black"/>
<path d="M26.6707 26.1839C26.614 26.2429 26.5573 26.3007 26.4995 26.3585C26.5573 26.3007 26.614 26.2429 26.6707 26.1839Z" fill="black"/>
<path d="M27.5533 25.1721C27.4877 25.255 27.4209 25.3368 27.3529 25.4174C27.4209 25.3356 27.4877 25.2539 27.5533 25.1721Z" fill="black"/>
<path d="M26.207 26.6476C26.1561 26.6961 26.104 26.7447 26.052 26.7933C26.104 26.7447 26.1561 26.6961 26.207 26.6476Z" fill="black"/>
<path d="M28.2132 24.2875H28.2109C28.1901 24.3175 28.1693 24.3476 28.1484 24.3777C28.1693 24.3476 28.1924 24.3187 28.2132 24.2875Z" fill="black"/>
<path d="M27.9142 24.7038C27.86 24.7775 27.8047 24.8512 27.7483 24.9238C27.8036 24.8512 27.86 24.7775 27.9142 24.7038Z" fill="black"/>
<path d="M25.7109 27.1031C25.6866 27.1251 25.6624 27.1471 25.6381 27.1679C25.6624 27.1459 25.6866 27.124 25.7109 27.1031Z" fill="black"/>
<path d="M25.1769 27.5518C25.1626 27.5625 25.1494 27.5744 25.1351 27.5852C25.1494 27.5744 25.1626 27.5625 25.1769 27.5518Z" fill="black"/>
<path d="M24.6229 27.9762C24.6229 27.9762 24.6206 27.9762 24.6182 27.9786C24.6182 27.9786 24.6182 27.9786 24.6206 27.9786L24.6229 27.9762Z" fill="black"/>
<path d="M20.4924 28.8839C20.7179 28.8018 20.9422 28.7139 21.1619 28.6202L22.4582 24.9998L26.2926 24.8853C26.4498 24.7038 26.6025 24.5188 26.7505 24.3303L22.0731 24.4702L20.4924 28.8839Z" fill="white"/>
<path d="M27.0661 24.8633H27.0985C25.4808 26.8719 23.3439 28.4445 20.8925 29.3776L20.9029 29.3476C20.6855 29.4308 20.4658 29.5083 20.2438 29.5812L20.0033 30.253C21.6175 29.7766 23.1786 29.0238 24.6205 27.9762C24.6205 27.9762 24.6217 27.9762 24.6228 27.975C24.7974 27.8478 24.9686 27.7172 25.1374 27.5842C25.1513 27.5738 25.164 27.5622 25.1779 27.5518C25.3351 27.4258 25.4889 27.2986 25.6404 27.1679C25.6647 27.1471 25.689 27.124 25.7132 27.1031C25.8289 27.0014 25.9422 26.8985 26.0555 26.7932C26.1075 26.7447 26.1596 26.6961 26.2105 26.6476C26.3099 26.5527 26.407 26.4556 26.503 26.3585C26.5608 26.3007 26.6175 26.2428 26.6741 26.1839C26.7701 26.0833 26.8649 25.9815 26.9586 25.8774C27.0187 25.8115 27.0765 25.7445 27.1355 25.6785C27.2107 25.593 27.2847 25.5063 27.3575 25.4184C27.4258 25.3374 27.4928 25.2542 27.5587 25.1721C27.6246 25.09 27.6894 25.0067 27.753 24.9235C27.8085 24.8506 27.8652 24.7766 27.9195 24.7026C27.9993 24.5951 28.0768 24.4864 28.1531 24.3765C28.1739 24.3465 28.1947 24.3164 28.2155 24.2863L27.4963 24.3083C27.3587 24.4968 27.2165 24.6818 27.0696 24.8622L27.0661 24.8633Z" fill="white"/>
<path d="M27.7322 6.46388V6.46735C27.7565 6.50089 27.7831 6.53443 27.8085 6.56798C27.7831 6.53328 27.7588 6.49858 27.7322 6.46504V6.46388Z" fill="black"/>
<path d="M28.0756 6.93103C28.1068 6.97498 28.1369 7.02009 28.1681 7.06404C28.1369 7.02009 28.1068 6.97498 28.0756 6.93103Z" fill="black"/>
<path d="M28.426 7.44675C28.4411 7.47104 28.4573 7.49417 28.4723 7.5173C28.4573 7.49301 28.4411 7.46988 28.426 7.44675Z" fill="black"/>
<path d="M30.712 13.5082C30.7201 13.5672 30.7282 13.625 30.7363 13.684C30.7282 13.625 30.7201 13.5672 30.712 13.5082Z" fill="black"/>
<path d="M30.6693 13.2318C30.6717 13.245 30.6741 13.2581 30.6765 13.2724C30.6741 13.2593 30.6717 13.2461 30.6693 13.2318Z" fill="black"/>
<path d="M30.8658 16.1146L30.8681 16.1169C30.8889 15.356 30.8519 14.5882 30.7548 13.8181C30.8322 14.4367 30.8716 15.0681 30.8716 15.7075C30.8716 15.844 30.8692 15.9804 30.8658 16.1157V16.1146Z" fill="black"/>
<path d="M28.781 8.02026C28.7894 8.03457 28.7977 8.04888 28.806 8.06318C28.7977 8.04888 28.7894 8.03457 28.781 8.02026Z" fill="black"/>
<path d="M27.7102 8.47124C27.5865 8.26657 27.457 8.06421 27.3229 7.86533L26.0093 12.3588L29.7165 15.2253C29.7084 14.9848 29.6945 14.7455 29.6737 14.5084L26.6325 12.1576L27.7102 8.47124Z" fill="white"/>
<path d="M27.9264 7.73122L27.9357 7.70115C29.3267 9.81839 30.1847 12.3161 30.3131 15.0022L30.2865 14.9814C30.298 15.2126 30.3038 15.4451 30.3038 15.6798L30.867 16.1146C30.8704 15.9793 30.8727 15.8428 30.8727 15.7064C30.8727 15.067 30.8323 14.4356 30.7559 13.817C30.7502 13.7719 30.7444 13.7279 30.7386 13.6828C30.7305 13.6239 30.7224 13.566 30.7143 13.5071C30.7028 13.4284 30.6912 13.3487 30.6785 13.27C30.6762 13.2573 30.6738 13.2446 30.6715 13.2307C30.549 12.4918 30.3697 11.7529 30.1315 11.0187C29.7893 9.96524 29.3429 8.97774 28.8075 8.05961C28.7994 8.04574 28.7913 8.03186 28.7832 8.01798C28.6838 7.848 28.5809 7.68149 28.4757 7.51614C28.4606 7.49186 28.4444 7.46873 28.4294 7.4456C28.345 7.31609 28.2583 7.18774 28.1716 7.0617C28.1403 7.01776 28.1103 6.97267 28.079 6.92873C27.9923 6.80615 27.9021 6.68474 27.8108 6.56448C27.7853 6.53095 27.7599 6.49742 27.7333 6.46388L27.5321 7.15305C27.6686 7.34153 27.8004 7.53348 27.9287 7.72775L27.9264 7.73122Z" fill="white"/>
<path d="M10.2902 14.4911L12.3588 20.8578H19.054L21.1226 14.4911L15.7064 10.5561L10.2902 14.4911ZM18.6597 20.3167H12.752L10.9261 14.6981L15.7052 11.2256L20.4843 14.6981L18.6585 20.3167H18.6597Z" fill="white"/>
<path d="M1.69055 15.9157L0.274048 15.8336C0.393149 18.5602 1.34596 22.0569 2.76709 24.1973L4.25066 23.7764C2.67458 21.5458 1.73449 18.8377 1.6917 15.9157H1.69055Z" fill="white"/>
<path d="M11.1747 2.43984L10.5098 1.64429C8.01792 2.58091 5.77812 4.24833 4.14539 6.29503L4.49113 7.30451C6.16549 5.07511 8.48739 3.36028 11.1747 2.43984Z" fill="white"/>
<path d="M27.1632 23.7764L27.8778 23.7556C29.2978 21.6152 30.1697 19.0806 30.2888 16.3528L29.7233 15.9157C29.6805 18.8377 28.7393 21.547 27.1644 23.7764H27.1632Z" fill="white"/>
<path d="M26.9216 7.30452L27.6489 6.04759C26.0162 4.00089 23.2283 2.13574 20.7364 1.19911L20.238 2.43985C22.9253 3.36029 25.2472 5.07628 26.9216 7.30452Z" fill="white"/>
<path d="M15.7064 29.7257C14.2691 29.7257 12.8815 29.5083 11.5749 29.1036L11.3217 30.5259C12.5612 30.8693 14.3478 31.222 15.6949 31.222C17.042 31.222 19.0413 30.8682 20.2809 30.5259L19.838 29.1036C18.5314 29.5072 17.1438 29.7257 15.7064 29.7257Z" fill="white"/>
<path d="M15.7064 1.68824C16.7991 1.68824 17.8629 1.81428 18.8851 2.05133L20.2403 1.13899C19.0239 0.809435 17.0963 0.239366 15.7781 0.291401C14.3581 0.346905 12.4467 1.10083 11.2302 1.43038L12.5288 2.05133C13.5498 1.81313 14.6148 1.68824 15.7075 1.68824H15.7064Z" fill="white"/>
<path d="M3.70366 8.47126L3.89793 5.97012C1.48236 8.11164 0.43126 12.7774 0.299438 15.4439L1.73907 14.5084C1.92523 12.3137 2.61903 10.2624 3.70366 8.47126Z" fill="white"/>
<path d="M5.11903 24.8865L2.65259 23.8504C4.26219 25.8428 6.29039 28.9394 11.051 30.2946L10.2508 28.6214C8.2654 27.7796 6.51356 26.4926 5.11903 24.8876V24.8865Z" fill="white"/>
<path d="M21.2683 25.7653L20.2045 30.4669C22.6374 29.5372 27.2292 27.139 28.9313 23.8492L25.9711 24.1973C24.5765 25.8034 23.2537 24.9223 21.2694 25.7641L21.2683 25.7653Z" fill="white"/>
<path d="M29.6667 15.3549L31.2335 16.5933C31.2717 12.9555 29.8321 9.21363 28.4549 7.10912L27.7102 8.47011C28.7937 10.2613 29.4805 13.1602 29.6667 15.3537V15.3549Z" fill="white"/>
<path d="M26.7516 24.3303L27.4928 24.3083C27.6258 24.1268 27.7541 23.9429 27.879 23.7544L27.1644 23.7753C27.0314 23.9637 26.8938 24.1487 26.7527 24.3291L26.7516 24.3303Z" fill="white"/>
<path d="M1.68827 15.7064C1.68827 15.5457 1.69174 15.3849 1.69752 15.2254L1.11011 15.6787C1.11011 15.6879 1.11011 15.6972 1.11011 15.7064C1.11011 15.9226 1.11589 16.1377 1.12514 16.3528L1.69058 15.9157C1.69058 15.8463 1.68827 15.7769 1.68827 15.7076V15.7064Z" fill="white"/>
<path d="M29.7257 15.7064C29.7257 15.7758 29.7245 15.8452 29.7234 15.9157L30.2888 16.3528C30.2981 16.1389 30.3038 15.9238 30.3038 15.7064C30.3038 15.6972 30.3038 15.6879 30.3038 15.6787L29.7164 15.2254C29.7222 15.3849 29.7257 15.5457 29.7257 15.7064Z" fill="white"/>
<path d="M19.839 29.1036L19.5985 29.7766C19.8159 29.7164 20.031 29.6517 20.2437 29.5811L20.4935 28.8839C20.2784 28.9625 20.0599 29.0353 19.839 29.1036Z" fill="white"/>
<path d="M4.49116 7.30453L4.29112 6.61998C4.1512 6.79574 4.01591 6.97382 3.88293 7.15536L4.08992 7.86534C4.21827 7.67455 4.3524 7.48838 4.49001 7.30453H4.49116Z" fill="white"/>
<path d="M4.24952 23.7764L3.53491 23.7556C3.6598 23.9429 3.78815 24.1279 3.92113 24.3094L4.66117 24.3314C4.51895 24.1499 4.3825 23.9649 4.24952 23.7775V23.7764Z" fill="white"/>
<path d="M11.8328 2.23286L11.2211 1.81543C11.0071 1.88481 10.7955 1.95881 10.5851 2.03744L11.1748 2.43985C11.3922 2.36584 11.6107 2.29646 11.8328 2.23286Z" fill="white"/>
<path d="M27.3217 7.86534L27.5286 7.15536C27.3968 6.97382 27.2604 6.79459 27.1205 6.61998L26.9204 7.30453C27.058 7.48838 27.1921 7.67455 27.3205 7.86534H27.3217Z" fill="white"/>
<path d="M10.9203 28.8839L11.1701 29.5811C11.3828 29.6505 11.5979 29.7164 11.8153 29.7766L11.5748 29.1036C11.3539 29.0353 11.1365 28.9625 10.9203 28.8839Z" fill="white"/>
<path d="M20.238 2.43985L20.8278 2.03744C20.6185 1.95881 20.4057 1.88481 20.1918 1.81543L19.5801 2.23286C19.8021 2.29646 20.0206 2.36584 20.238 2.43985Z" fill="white"/>
<path d="M12.5288 2.05134L11.8917 1.61656C11.6662 1.67785 11.443 1.74376 11.2222 1.81545L11.8339 2.23288C12.064 2.16697 12.2952 2.10569 12.53 2.05134H12.5288Z" fill="white"/>
<path d="M19.5801 2.23288L20.1918 1.81545C19.9709 1.74376 19.7478 1.67785 19.5223 1.61656L18.8851 2.05134C19.1199 2.10569 19.3511 2.16697 19.5812 2.23288H19.5801Z" fill="white"/>
<path d="M2.04786 14.0598L0.506477 14.1107C0.494914 14.3419 0.339966 16.1759 0.339966 16.4106L1.69865 15.2254C1.70674 14.9849 2.0282 14.298 2.04902 14.0598H2.04786Z" fill="white"/>
<path d="M4.09103 7.86535L3.88405 7.15536C3.7476 7.34385 3.61578 7.5358 3.48743 7.73006L3.70366 8.47011C3.82739 8.26544 3.9569 8.06308 4.09103 7.86419V7.86535Z" fill="white"/>
<path d="M10.2509 28.6203L10.511 29.3476C10.7284 29.4308 10.9481 29.5083 11.1701 29.5812L10.9204 28.8839C10.6949 28.8018 10.4706 28.7139 10.2509 28.6203Z" fill="white"/>
<path d="M4.66229 24.3303L3.92224 24.3083C4.05984 24.4968 4.20207 24.6818 4.34893 24.8622L5.1202 24.8853C4.96294 24.7038 4.8103 24.5188 4.66229 24.3303Z" fill="white"/>
<path d="M20.4924 28.8839L20.2427 29.5812C20.4647 29.5083 20.6844 29.4308 20.9018 29.3476L21.162 28.6203C20.9411 28.7139 20.7179 28.8018 20.4924 28.8839Z" fill="white"/>
<path d="M26.2937 24.8864L27.0661 24.8633C27.213 24.6818 27.3552 24.4968 27.4928 24.3094L26.7516 24.3314C26.6036 24.5199 26.451 24.7061 26.2937 24.8864Z" fill="white"/>
<path d="M29.6737 14.5084C29.6934 14.7455 29.7084 14.9848 29.7165 15.2254L30.3039 15.6786C30.3039 15.4451 30.297 15.2115 30.2866 14.9802L29.6749 14.5073L29.6737 14.5084Z" fill="white"/>
<path d="M27.7102 8.47126L28.8145 7.43519C28.6873 7.23977 27.8721 6.17595 27.7357 5.98747L27.3229 7.86535C27.457 8.06308 27.5865 8.26544 27.7102 8.47126Z" fill="white"/>
</svg>
