<svg width="33" height="32" viewBox="0 0 33 32" fill="none" xmlns="http://www.w3.org/2000/svg">
<path d="M16.5 0C7.42244 0 0 7.19752 0 16C0 24.8025 7.42244 32 16.5 32C25.5776 32 33 24.8025 33 16C33 7.19752 25.5776 0 16.5 0ZM16.5 1.58352C17.3276 1.58352 18.1656 1.73928 18.992 1.87472V5.20767C18.1644 5.07223 17.3264 4.91648 16.5 4.91648C15.6736 4.91648 14.8344 5.07223 14.008 5.20767V1.87472C14.8356 1.73928 15.6736 1.58352 16.5 1.58352ZM16.5 6.66704C21.8599 6.66704 26.1246 10.8025 26.1246 16C26.1246 21.1975 21.8599 25.333 16.5 25.333C11.1401 25.333 6.87539 21.1975 6.87539 16C6.87539 10.8025 11.1401 6.66704 16.5 6.66704ZM5.07012 6.79233L8.1208 8.41761C6.88586 9.61512 6.04783 11.0688 5.49961 12.667L2.62119 11.0835C3.16941 9.4842 3.96903 7.98984 5.07012 6.79233ZM27.9299 6.79233C29.031 7.98984 29.8318 9.48533 30.3788 11.0835L27.5004 12.667C26.9522 11.0677 26.1095 9.61512 25.0084 8.41761L27.9299 6.79233ZM18.4333 11.4594C17.8804 11.4018 17.2729 11.5745 16.7572 11.8758C16.0693 12.2765 15.5223 12.7822 15.3826 13.5847C15.2429 14.3871 15.2802 15.3499 15.5549 16.4176C15.6946 16.9492 15.6946 17.4853 15.5549 17.7506C15.4152 18.1512 15.2814 18.4063 14.867 18.5418C14.4538 18.807 14.1686 18.781 13.6204 18.9165C13.3469 18.781 13.078 18.526 12.8045 18.1253C12.531 17.7246 12.3645 17.3183 12.5042 16.9165C12.6439 16.5158 12.9442 16.14 13.4924 15.8747L12.375 14.1253C11.4136 14.526 10.8817 15.1986 10.742 16C10.6023 16.8025 10.7152 17.6151 11.1284 18.4165L9.88184 19.0835L10.4405 20L11.9443 19.0835C12.4926 19.886 13.1909 20.2765 13.8776 20.5418C14.5644 20.807 15.3815 20.6512 16.0693 20.2506C16.7572 19.8499 17.3043 19.2088 17.444 18.5418C17.5836 17.8747 17.5894 16.9424 17.3148 15.8747C17.1751 15.2077 17.1751 14.6817 17.3148 14.4165C17.4544 14.1512 17.728 13.8849 18.0026 13.7494C18.2762 13.4842 18.7173 13.4582 18.9908 13.4582C19.2644 13.4582 19.5332 13.7235 19.8068 14.1253C20.0803 14.5271 20.0756 14.8081 19.9359 15.2088C19.7963 15.6095 19.404 15.86 18.9908 16.1253L20.0651 17.8747C20.753 17.474 21.2954 16.7912 21.569 16.1253C21.8425 15.4594 21.7144 14.6772 21.4398 13.8758L22.8144 13.0847L22.2557 12.1264L20.8811 12.9176C20.3329 12.2506 19.6776 11.7201 18.9908 11.5847C18.8186 11.5169 18.6149 11.4808 18.4321 11.4594H18.4333ZM5.49961 19.3341C6.04783 20.9334 6.89052 22.386 7.99161 23.5835L5.07012 25.2088C3.96903 24.0113 3.16824 22.5158 2.62119 20.9176L5.49961 19.3341ZM27.3712 19.3341L30.2496 20.9176C29.8364 22.5169 29.0298 24.0113 27.9299 25.2088L24.8792 23.5835C25.9803 22.386 26.958 20.9323 27.3712 19.3341ZM14.008 26.7923C14.8356 26.9278 15.6736 27.0835 16.5 27.0835C17.3264 27.0835 18.1656 26.9278 18.992 26.7923V30.1253C18.1644 30.2607 17.3264 30.4165 16.5 30.4165C15.6736 30.4165 14.8344 30.2607 14.008 30.1253V26.7923Z" fill="white"/>
</svg>
