<svg width="39" height="37" viewBox="0 0 39 37" fill="none" xmlns="http://www.w3.org/2000/svg">
<g clip-path="url(#clip0_1_4646)">
<path d="M27.1098 15.6538C28.1561 15.6538 29.0122 16.5077 29.0122 17.5513C29.0122 18.5949 28.1561 19.4487 27.1098 19.4487C26.0634 19.4487 25.2073 18.5949 25.2073 17.5513C25.2073 16.5077 26.0634 15.6538 27.1098 15.6538Z" fill="#73FC6F"/>
<path d="M19.5 15.6538C20.5463 15.6538 21.4024 16.5077 21.4024 17.5513C21.4024 18.5949 20.5463 19.4487 19.5 19.4487C18.4536 19.4487 17.5975 18.5949 17.5975 17.5513C17.5975 16.5077 18.4536 15.6538 19.5 15.6538Z" fill="#73FC6F"/>
<path d="M11.8902 15.6538C12.9366 15.6538 13.7927 16.5077 13.7927 17.5513C13.7927 18.5949 12.9366 19.4487 11.8902 19.4487C10.8439 19.4487 9.98779 18.5949 9.98779 17.5513C9.98779 16.5077 10.8439 15.6538 11.8902 15.6538Z" fill="#73FC6F"/>
<path d="M2.37803 37C1.67413 37 0.98925 36.6774 0.532664 36.1272C-1.85966e-05 35.4631 -0.152214 34.5713 0.152177 33.7744L2.87266 26.7538C0.98925 23.9836 -0.019043 20.8338 -0.019043 17.5513C-1.85799e-05 7.87436 8.7512 0 19.5 0C30.2488 0 39 7.87436 39 17.5513C39 27.2282 30.2488 35.1026 19.5 35.1026C18.2063 35.1026 16.9317 34.9887 15.6761 34.761L2.77754 36.9621C2.64437 36.981 2.5112 37 2.37803 37ZM19.5 4.74359C11.3766 4.74359 4.75608 10.4928 4.75608 17.5513C4.75608 20.1887 5.68827 22.7313 7.41949 24.8944C7.95218 25.5585 8.08535 26.4503 7.78096 27.2472L6.08779 31.5923L15.2766 30.0174C15.5619 29.9605 15.8663 29.9795 16.1517 30.0174C17.2361 30.2451 18.3585 30.34 19.481 30.34C27.6044 30.34 34.2249 24.5908 34.2249 17.5323C34.2249 10.4738 27.6044 4.72462 19.481 4.72462L19.5 4.74359Z" fill="#73FC6F"/>
</g>
<defs>
<clipPath id="clip0_1_4646">
<rect width="39" height="37" fill="white"/>
</clipPath>
</defs>
</svg>
