<svg width="16" height="12" viewBox="0 0 16 12" fill="none" xmlns="http://www.w3.org/2000/svg">
<path d="M5.54997 11.575C5.41664 11.575 5.29164 11.5542 5.17497 11.5125C5.0583 11.4709 4.94997 11.4 4.84997 11.3L0.54997 7.00002C0.366636 6.81669 0.279136 6.57919 0.28747 6.28752C0.295803 5.99586 0.391636 5.75836 0.57497 5.57502C0.758303 5.39169 0.991636 5.30002 1.27497 5.30002C1.5583 5.30002 1.79164 5.39169 1.97497 5.57502L5.54997 9.15002L14.025 0.675024C14.2083 0.491691 14.4458 0.400024 14.7375 0.400024C15.0291 0.400024 15.2666 0.491691 15.45 0.675024C15.6333 0.858358 15.725 1.09586 15.725 1.38752C15.725 1.67919 15.6333 1.91669 15.45 2.10002L6.24997 11.3C6.14997 11.4 6.04164 11.4709 5.92497 11.5125C5.8083 11.5542 5.6833 11.575 5.54997 11.575Z" fill="#73FC6F"/>
</svg>
