<svg width="14" height="14" viewBox="0 0 14 14" fill="none" xmlns="http://www.w3.org/2000/svg">
<path d="M6.99967 8.19345L1.82142 13.3717C1.65149 13.5416 1.45257 13.6266 1.22467 13.6266C0.996772 13.6266 0.797855 13.5416 0.627922 13.3717C0.458005 13.2018 0.373047 13.0029 0.373047 12.775C0.373047 12.5471 0.458005 12.3482 0.627922 12.1782L5.8062 6.99998L0.627922 1.82173C0.458005 1.65179 0.373047 1.45288 0.373047 1.22498C0.373047 0.997077 0.458005 0.798161 0.627922 0.628227C0.797855 0.458311 0.996772 0.373352 1.22467 0.373352C1.45257 0.373352 1.65149 0.458311 1.82142 0.628227L6.99967 5.8065L12.1779 0.628227C12.3479 0.458311 12.5468 0.373352 12.7747 0.373352C13.0026 0.373352 13.2015 0.458311 13.3714 0.628227C13.5413 0.798161 13.6263 0.997077 13.6263 1.22498C13.6263 1.45288 13.5413 1.65179 13.3714 1.82173L8.19315 6.99998L13.3714 12.1782C13.5413 12.3482 13.6263 12.5471 13.6263 12.775C13.6263 13.0029 13.5413 13.2018 13.3714 13.3717C13.2015 13.5416 13.0026 13.6266 12.7747 13.6266C12.5468 13.6266 12.3479 13.5416 12.1779 13.3717L6.99967 8.19345Z" fill="white"/>
</svg>
