<svg width="48" height="40" viewBox="0 0 48 40" fill="none" xmlns="http://www.w3.org/2000/svg">
<path d="M7.69216 0H41.33C45.6888 0 48.8813 4.17145 47.7816 8.4509L39.6837 40H6.66576C2.35356 40 -0.818934 35.9163 0.187467 31.6774L7.69216 0Z" fill="#243156"/>
<path d="M16 27C15.7167 27 15.4793 26.904 15.288 26.712C15.096 26.5207 15 26.2833 15 26C15 25.7167 15.096 25.4793 15.288 25.288C15.4793 25.096 15.7167 25 16 25H20C20.2833 25 20.521 25.096 20.713 25.288C20.9043 25.4793 21 25.7167 21 26C21 26.2833 20.9043 26.5207 20.713 26.712C20.521 26.904 20.2833 27 20 27H16ZM16 15C15.7167 15 15.4793 14.9043 15.288 14.713C15.096 14.521 15 14.2833 15 14C15 13.7167 15.096 13.479 15.288 13.287C15.4793 13.0957 15.7167 13 16 13H24C24.2833 13 24.521 13.0957 24.713 13.287C24.9043 13.479 25 13.7167 25 14C25 14.2833 24.9043 14.521 24.713 14.713C24.521 14.9043 24.2833 15 24 15H16ZM24 29C23.7167 29 23.4793 28.904 23.288 28.712C23.096 28.5207 23 28.2833 23 28V24C23 23.7167 23.096 23.479 23.288 23.287C23.4793 23.0957 23.7167 23 24 23C24.2833 23 24.521 23.0957 24.713 23.287C24.9043 23.479 25 23.7167 25 24V25H32C32.2833 25 32.5207 25.096 32.712 25.288C32.904 25.4793 33 25.7167 33 26C33 26.2833 32.904 26.5207 32.712 26.712C32.5207 26.904 32.2833 27 32 27H25V28C25 28.2833 24.9043 28.5207 24.713 28.712C24.521 28.904 24.2833 29 24 29ZM20 23C19.7167 23 19.479 22.904 19.287 22.712C19.0957 22.5207 19 22.2833 19 22V21H16C15.7167 21 15.4793 20.904 15.288 20.712C15.096 20.5207 15 20.2833 15 20C15 19.7167 15.096 19.479 15.288 19.287C15.4793 19.0957 15.7167 19 16 19H19V18C19 17.7167 19.0957 17.479 19.287 17.287C19.479 17.0957 19.7167 17 20 17C20.2833 17 20.521 17.0957 20.713 17.287C20.9043 17.479 21 17.7167 21 18V22C21 22.2833 20.9043 22.5207 20.713 22.712C20.521 22.904 20.2833 23 20 23ZM24 21C23.7167 21 23.4793 20.904 23.288 20.712C23.096 20.5207 23 20.2833 23 20C23 19.7167 23.096 19.479 23.288 19.287C23.4793 19.0957 23.7167 19 24 19H32C32.2833 19 32.5207 19.0957 32.712 19.287C32.904 19.479 33 19.7167 33 20C33 20.2833 32.904 20.5207 32.712 20.712C32.5207 20.904 32.2833 21 32 21H24ZM28 17C27.7167 17 27.4793 16.904 27.288 16.712C27.096 16.5207 27 16.2833 27 16V12C27 11.7167 27.096 11.479 27.288 11.287C27.4793 11.0957 27.7167 11 28 11C28.2833 11 28.5207 11.0957 28.712 11.287C28.904 11.479 29 11.7167 29 12V13H32C32.2833 13 32.5207 13.0957 32.712 13.287C32.904 13.479 33 13.7167 33 14C33 14.2833 32.904 14.521 32.712 14.713C32.5207 14.9043 32.2833 15 32 15H29V16C29 16.2833 28.904 16.5207 28.712 16.712C28.5207 16.904 28.2833 17 28 17Z" fill="white"/>
</svg>
