<svg width="16" height="16" viewBox="0 0 16 16" fill="none" xmlns="http://www.w3.org/2000/svg">
<path d="M1.68466 15.1674C1.44426 15.1674 1.24222 15.0855 1.07853 14.9218C0.914849 14.7582 0.833008 14.5561 0.833008 14.3157V10.925C0.833008 10.6846 0.915266 10.4825 1.07978 10.3188C1.2443 10.1552 1.44738 10.0733 1.68903 10.0733C1.93067 10.0733 2.13228 10.1552 2.29388 10.3188C2.45548 10.4825 2.53628 10.6846 2.53628 10.925V13.4641H5.07541C5.31581 13.4641 5.51785 13.5464 5.68153 13.7109C5.8452 13.8754 5.92703 14.0785 5.92703 14.3201C5.92703 14.5618 5.8452 14.7634 5.68153 14.925C5.51785 15.0866 5.31581 15.1674 5.07541 15.1674H1.68466ZM1.68026 5.9266C1.43862 5.9266 1.23701 5.84477 1.07541 5.6811C0.913808 5.51742 0.833008 5.31537 0.833008 5.07497V1.68422C0.833008 1.44382 0.914849 1.24078 1.07853 1.0751C1.24222 0.909433 1.44426 0.826599 1.68466 0.826599H5.07541C5.31581 0.826599 5.51785 0.909857 5.68153 1.07637C5.8452 1.24287 5.92703 1.44695 5.92703 1.6886C5.92703 1.93023 5.8452 2.13185 5.68153 2.29345C5.51785 2.45505 5.31581 2.53585 5.07541 2.53585H2.53628V5.07497C2.53628 5.31537 2.45402 5.51742 2.28951 5.6811C2.12499 5.84477 1.92191 5.9266 1.68026 5.9266ZM10.9254 15.1674C10.685 15.1674 10.483 15.0851 10.3193 14.9206C10.1556 14.7561 10.0738 14.553 10.0738 14.3113C10.0738 14.0697 10.1556 13.8681 10.3193 13.7065C10.483 13.5449 10.685 13.4641 10.9254 13.4641H13.4645V10.925C13.4645 10.6846 13.5468 10.4825 13.7113 10.3188C13.8758 10.1552 14.0789 10.0733 14.3206 10.0733C14.5622 10.0733 14.7648 10.1552 14.9284 10.3188C15.092 10.4825 15.1738 10.6846 15.1738 10.925V14.3157C15.1738 14.5561 15.0909 14.7582 14.9253 14.9218C14.7596 15.0855 14.5566 15.1674 14.3162 15.1674H10.9254ZM14.3118 5.9266C14.0701 5.9266 13.8685 5.84477 13.7069 5.6811C13.5453 5.51742 13.4645 5.31537 13.4645 5.07497V2.53585H10.9254C10.685 2.53585 10.483 2.45359 10.3193 2.28907C10.1556 2.12456 10.0738 1.92147 10.0738 1.67982C10.0738 1.43819 10.1556 1.23557 10.3193 1.07197C10.483 0.908391 10.685 0.826599 10.9254 0.826599H14.3162C14.5566 0.826599 14.7596 0.909433 14.9253 1.0751C15.0909 1.24078 15.1738 1.44382 15.1738 1.68422V5.07497C15.1738 5.31537 15.0905 5.51742 14.924 5.6811C14.7575 5.84477 14.5534 5.9266 14.3118 5.9266Z" fill="white"/>
</svg>
