<svg width="35" height="34" viewBox="0 0 35 34" fill="none" xmlns="http://www.w3.org/2000/svg">
<path d="M3.78189 0C1.71397 0 0 1.66514 0 3.67415V26.0759C0 28.0849 1.71397 29.75 3.78189 29.75H21.0077C23.0756 29.75 24.7896 28.0849 24.7896 26.0759V3.67415C24.7896 1.66514 23.0756 0 21.0077 0H3.78189ZM3.78189 2.83333H21.0077C21.5665 2.83333 21.8732 3.13245 21.8732 3.67415V26.0759C21.8732 26.6187 21.5653 26.9167 21.0077 26.9167H3.78189C3.22309 26.9167 2.91642 26.6176 2.91642 26.0759V3.67415C2.91642 3.13127 3.22431 2.83333 3.78189 2.83333ZM26.2478 3.67415V6.64055L31.3521 7.92415C31.7909 8.06782 32.0928 8.5106 31.9449 9.07467L26.249 30.7239C26.1011 31.1502 25.6454 31.4434 25.0647 31.2997L23.0599 30.7239C22.3301 31.0065 21.5677 31.2997 20.6901 31.2997H13.3991L24.3362 34H25.5205C27.2696 34 28.7278 32.866 29.1666 31.1667L34.8625 9.47388C35.4431 7.63092 34.1219 5.51711 32.0831 5.09081L26.2502 3.67415H26.2478ZM18.0913 4.25L16.4961 8.5H17.0428L17.4985 7.34947H19.0937L19.5495 8.5H20.1422L18.5022 4.25H18.0925H18.0913ZM18.2282 5.09081L18.821 6.95026H17.4997L18.2295 5.09081H18.2282ZM28.163 8.5L25.5205 12.1741L26.1132 12.3072L26.843 11.3333L28.4381 11.7761V13.0161L29.0309 13.1928L28.5751 8.63307L28.1654 8.5H28.163ZM12.2584 9.20892C12.2584 9.20892 6.56255 13.0161 6.56255 15.8495C6.56255 17.5488 7.72985 18.6828 9.47898 18.6828C10.3566 18.6828 11.3639 18.0021 11.8027 17.5759C11.8027 17.5759 11.3578 19.5519 10.4814 21.25C10.4814 21.5326 14.2754 21.3937 14.1276 21.25C13.25 19.6897 12.8512 17.5759 12.8512 17.5759C13.4318 18.0021 14.2985 18.5497 15.1748 18.5497C16.924 18.5497 18.0913 17.4157 18.0913 15.7164C18.0913 12.7394 12.4063 9.06408 12.2584 9.20892ZM28.163 9.34199L28.3 11.3345L27.1157 10.8917L28.1642 9.34199H28.163ZM4.64858 21.25L6.28861 25.5H6.69832L8.2935 21.25H7.74682L7.29105 22.4005H5.69587L5.2401 21.25H4.64737H4.64858ZM5.96982 22.7997H7.29105L6.56134 24.6592L5.9686 22.7997H5.96982Z" fill="white"/>
</svg>
