<svg width="42" height="41" viewBox="0 0 42 41" fill="none" xmlns="http://www.w3.org/2000/svg">
<path d="M4.10767 40.3826C3.1881 40.3826 2.39046 40.0448 1.71472 39.369C1.03902 38.6933 0.701172 37.8957 0.701172 36.9761V14.0293C0.701172 13.4337 0.823455 12.8456 1.06802 12.2652C1.31259 11.6848 1.74936 11.2167 2.37832 10.8609L19.2349 0.756499C19.5001 0.573899 19.7839 0.451616 20.0865 0.389649C20.389 0.327716 20.6935 0.296749 21.0001 0.296749C21.3066 0.296749 21.6111 0.327716 21.9137 0.389649C22.2162 0.451616 22.5001 0.573899 22.7653 0.756499L39.6218 10.8609C40.2762 11.2167 40.7213 11.6848 40.9571 12.2652C41.193 12.8456 41.311 13.4337 41.311 14.0293V36.9761C41.311 37.8957 40.9711 38.6933 40.2914 39.369C39.6117 40.0448 38.812 40.3826 37.8925 40.3826H4.10767ZM21.0001 22.9902C21.1493 22.9902 21.2923 22.9695 21.4289 22.9282C21.5655 22.8869 21.7084 22.829 21.8577 22.7543L37.6088 13.5337L21.8577 4.06305C21.7084 3.98045 21.5655 3.92048 21.4289 3.88315C21.2923 3.84585 21.1493 3.8272 21.0001 3.8272C20.8508 3.8272 20.7079 3.84585 20.5713 3.88315C20.4347 3.92048 20.2917 3.98045 20.1425 4.06305L4.39137 13.5337L20.1425 22.7543C20.2917 22.829 20.4347 22.8869 20.5713 22.9282C20.7079 22.9695 20.8508 22.9902 21.0001 22.9902Z" fill="white"/>
</svg>
