<svg width="38" height="38" viewBox="0 0 38 38" fill="none" xmlns="http://www.w3.org/2000/svg">
<path d="M34.762 37.275C30.6555 37.275 26.576 36.267 22.5234 34.2511C18.4709 32.2352 14.8287 29.6133 11.5968 26.3854C8.36492 23.1575 5.74101 19.5152 3.72507 15.4587C1.70914 11.4022 0.701172 7.32464 0.701172 3.2261C0.701172 2.51304 0.945738 1.91194 1.43487 1.4228C1.92401 0.933669 2.52509 0.689102 3.23812 0.689102H10.2381C10.8403 0.689102 11.3522 0.873353 11.774 1.24185C12.1957 1.61032 12.4726 2.121 12.6044 2.7739L13.9544 8.8826C14.045 9.4529 14.0347 9.9616 13.9235 10.4087C13.8122 10.8558 13.5914 11.2366 13.261 11.5511L8.20117 16.5294C10.02 19.5178 12.0439 22.1161 14.2729 24.3245C16.5019 26.5328 19.0193 28.4051 21.8251 29.9413L26.6349 25.0055C27.032 24.583 27.4771 24.2888 27.9702 24.1228C28.4633 23.9569 28.9744 23.9359 29.5033 24.0598L35.2022 25.3359C35.8298 25.4757 36.3361 25.7775 36.7213 26.2413C37.1064 26.7051 37.299 27.2634 37.299 27.9163V34.7261C37.299 35.4471 37.0544 36.0522 36.5653 36.5413C36.0761 37.0304 35.4751 37.275 34.762 37.275Z" fill="white"/>
</svg>
