<svg width="33" height="33" viewBox="0 0 33 33" fill="none" xmlns="http://www.w3.org/2000/svg">
<path d="M11.687 0C3.85061 0 0 2.47631 0 5.49982V33H23.374V5.49982C23.374 2.47631 19.5234 0 11.687 0ZM30.2491 4.1254C28.7288 4.1254 27.4993 5.35498 27.4993 6.87531C27.4993 7.50941 27.7353 8.08343 28.1012 8.55122L26.2107 13.2345C26.1517 13.4009 26.1195 13.5725 26.1249 13.7506V19.2504H24.7495V26.1258H28.8747C29.7019 26.1258 30.2502 25.5775 30.2502 24.7503V20.6249C30.2502 19.7976 29.5625 19.2494 28.8747 19.2494V14.05L30.6364 9.58123C31.9732 9.39347 33 8.26046 33 6.87424C33 5.3539 31.7705 4.12433 30.2502 4.12433L30.2491 4.1254ZM2.74982 6.87531H20.6242V16.5005H2.74982V6.87531ZM4.12527 8.2508V15.1261H8.25054V8.2508H4.12527ZM9.62491 8.2508V15.1261H13.7502V8.2508H9.62491ZM15.1246 8.2508V15.1261H19.2498V8.2508H15.1246ZM16.5 26.1258H6.87509L4.12527 23.3758H19.2498L16.5 26.1258Z" fill="white"/>
</svg>
