<svg width="24" height="24" viewBox="0 0 24 24" fill="none" xmlns="http://www.w3.org/2000/svg">
<path d="M8.00003 3.79672C7.71669 3.79672 7.47919 3.70089 7.28753 3.50922C7.09586 3.31756 7.00003 3.08006 7.00003 2.79672C7.00003 2.51339 7.09586 2.27589 7.28753 2.08422C7.47919 1.89256 7.71669 1.79672 8.00003 1.79672H16C16.2834 1.79672 16.5209 1.89256 16.7125 2.08422C16.9042 2.27589 17 2.51339 17 2.79672C17 3.08006 16.9042 3.31756 16.7125 3.50922C16.5209 3.70089 16.2834 3.79672 16 3.79672H8.00003ZM5.00003 6.79672C4.71669 6.79672 4.47919 6.70089 4.28753 6.50922C4.09586 6.31756 4.00003 6.08006 4.00003 5.79672C4.00003 5.51339 4.09586 5.27589 4.28753 5.08422C4.47919 4.89256 4.71669 4.79672 5.00003 4.79672H19C19.2834 4.79672 19.5209 4.89256 19.7125 5.08422C19.9042 5.27589 20 5.51339 20 5.79672C20 6.08006 19.9042 6.31756 19.7125 6.50922C19.5209 6.70089 19.2834 6.79672 19 6.79672H5.00003ZM4.00003 22.2033C3.39413 22.2033 2.87544 21.9875 2.44398 21.556C2.01249 21.1246 1.79675 20.6059 1.79675 20V10C1.79675 9.3941 2.01249 8.87541 2.44398 8.44395C2.87544 8.01246 3.39413 7.79672 4.00003 7.79672H20C20.6059 7.79672 21.1246 8.01246 21.5561 8.44395C21.9876 8.87541 22.2033 9.3941 22.2033 10V20C22.2033 20.6059 21.9876 21.1246 21.5561 21.556C21.1246 21.9875 20.6059 22.2033 20 22.2033H4.00003ZM11.55 18.0826L14.8397 15.8728C15.1557 15.6613 15.3136 15.3705 15.3136 15.0003C15.3136 14.6302 15.1557 14.3391 14.8397 14.1272L11.55 11.9174C11.1968 11.6721 10.8352 11.6549 10.4653 11.8659C10.0953 12.0768 9.91035 12.3933 9.91035 12.8152V17.1848C9.91035 17.6067 10.0953 17.9231 10.4653 18.1341C10.8352 18.3451 11.1968 18.3279 11.55 18.0826Z" fill="white"/>
</svg>
