<svg width="68" height="68" viewBox="0 0 68 68" fill="none" xmlns="http://www.w3.org/2000/svg">
<path d="M29.043 41.0652L21.2549 33.2772C20.7018 32.7241 20.0235 32.4475 19.2201 32.4475C18.4167 32.4475 17.7054 32.7518 17.0864 33.3605C16.5333 33.9269 16.2567 34.6111 16.2567 35.4131C16.2567 36.215 16.5399 36.8925 17.1064 37.4457L27.0339 47.4565C27.6063 48.0229 28.2742 48.3062 29.0375 48.3062C29.8008 48.3062 30.4723 48.0229 31.052 47.4565L50.7296 27.7591C51.3516 27.1504 51.6625 26.4476 51.6625 25.6508C51.6625 24.8541 51.3516 24.1462 50.7296 23.5272C50.1208 22.9741 49.4009 22.7114 48.5697 22.7392C47.7386 22.7669 47.0412 23.0574 46.4777 23.6105L29.043 41.0652ZM34.0022 67.8315C29.3651 67.8315 24.989 66.946 20.8738 65.175C16.7586 63.4039 13.1644 60.9818 10.0911 57.9084C7.01772 54.8351 4.59552 51.2418 2.82447 47.1284C1.05347 43.0151 0.167969 38.6399 0.167969 34.0028C0.167969 29.3101 1.05347 24.9062 2.82447 20.791C4.59552 16.6758 7.01666 13.0951 10.0879 10.0488C13.1592 7.00261 16.752 4.591 20.8663 2.814C24.9806 1.037 29.3568 0.148499 33.9951 0.148499C38.6888 0.148499 43.0941 1.0365 47.2108 2.8125C51.3276 4.58844 54.9086 6.99867 57.9538 10.0432C60.9991 13.0877 63.4099 16.6677 65.1863 20.7834C66.9627 24.8991 67.851 29.3047 67.851 34C67.851 38.6389 66.9625 43.0159 65.1855 47.1308C63.4085 51.2458 60.9969 54.8391 57.9506 57.9108C54.9044 60.9826 51.3246 63.4039 47.2112 65.175C43.0979 66.946 38.6949 67.8315 34.0022 67.8315ZM33.9995 62.154C41.8352 62.154 48.4865 59.4109 53.9533 53.9247C59.4201 48.4384 62.1535 41.7969 62.1535 34C62.1535 26.1643 59.4201 19.513 53.9533 14.0462C48.4865 8.57939 41.8319 5.846 33.9895 5.846C26.2026 5.846 19.5653 8.57939 14.0774 14.0462C8.58944 19.513 5.84547 26.1676 5.84547 34.01C5.84547 41.7968 8.58858 48.4342 14.0748 53.9221C19.561 59.41 26.2026 62.154 33.9995 62.154Z" fill="#73FC6F"/>
</svg>
