<svg width="1190" height="50" viewBox="0 0 1190 50" fill="none" xmlns="http://www.w3.org/2000/svg">
<path d="M1142.5 49.5H283H0V0H1190V21.4364H361.5H192H55.4999H49.5C51.5 21.4364 52 23 51.5 25C51.1 26.6 49.6667 32.6455 49 35.4682H67.9999H1142.5C1153 35.4682 1156 38.5618 1156 42.5C1156 42.5 1157 49.5 1142.5 49.5Z" fill="#243155"/>
<path d="M30.7243 21.55H42.6377C44.1815 21.55 45.3121 23.0102 44.9227 24.5081L42.0547 35.5513H30.3608C28.8336 35.5513 27.71 34.1219 28.0664 32.6381L30.7243 21.55Z" fill="#1C2747"/>
<path d="M1156.28 49.5525L1144.36 49.5525C1142.82 49.5525 1141.69 48.0924 1142.08 46.5944L1144.95 35.5512L1156.64 35.5512C1158.17 35.5512 1159.29 36.9807 1158.93 38.4644L1156.28 49.5525Z" fill="#243156"/>
</svg>
