<svg width="211" height="38" viewBox="0 0 211 38" fill="none" xmlns="http://www.w3.org/2000/svg">
<path d="M163.245 16.8849L158.111 37.8357H167.371L171.968 19.2552C172.124 18.6581 172.428 18.1447 172.906 17.7506C173.378 17.3446 173.909 17.1416 174.488 17.1416H179.521L181.384 8.89026H172.434C167.652 9.54702 164.601 12.2159 163.257 16.8789" fill="#0199ED"/>
<path d="M126.096 18.7237C126.658 16.1026 126.186 13.8099 124.681 11.8456C123.177 9.8813 121.147 8.89615 118.579 8.89615H112.173V8.926H100.716L93.8254 37.8356H103.199L108.191 16.8549H115.17C115.702 16.8549 116.096 17.046 116.382 17.4221C116.663 17.7983 116.776 18.2341 116.717 18.7237L112.006 37.8356H121.374L126.096 18.7237Z" fill="#0199ED"/>
<path d="M75.9555 27.9841C75.4062 30.5933 75.8659 32.892 77.3526 34.8623C78.8273 36.8385 80.8394 37.8296 83.3769 37.8296H89.7296L91.5984 29.841H86.7682C86.2368 29.841 85.8308 29.6499 85.5562 29.2738C85.2756 28.8976 85.1621 28.4618 85.2218 27.9841C85.4248 27.1721 85.6159 26.4258 85.7831 25.7511C85.9562 25.0765 86.1114 24.4436 86.2547 23.8644C86.3921 23.2793 86.5174 22.7479 86.6309 22.2643C86.7443 21.7807 86.8518 21.3508 86.9414 20.9508C87.0369 20.5567 87.1264 20.1985 87.2041 19.888C87.2817 19.5776 87.3474 19.3029 87.413 19.0581C87.4787 18.8074 87.5265 18.5984 87.5683 18.4193C87.6041 18.2342 87.6339 18.0849 87.6638 17.9476C87.6936 17.8222 87.7116 17.7147 87.7295 17.6311C87.7474 17.5416 87.7653 17.4759 87.7772 17.4162C87.7892 17.3565 87.7952 17.3207 87.8071 17.3028C87.819 17.2848 87.819 17.2729 87.819 17.2669V17.249H94.5658L96.4047 8.86632H89.7356C89.9087 8.22747 90.064 7.63041 90.2073 7.07515C90.3446 6.51391 90.4759 6.00641 90.5834 5.53473C90.6969 5.06903 90.8043 4.63915 90.9118 4.24509C91.0193 3.85103 91.1148 3.48085 91.1924 3.15844C91.276 2.83006 91.3536 2.53153 91.4253 2.28076C91.4909 2.03 91.5387 1.79715 91.5865 1.58818C91.6342 1.38518 91.682 1.20009 91.7298 1.03888C91.7775 0.883647 91.8193 0.740353 91.8432 0.632882C91.8731 0.519441 91.891 0.423912 91.9089 0.346294C91.9268 0.280618 91.9447 0.208971 91.9686 0.161206C91.9865 0.113441 91.9984 0.0835882 92.0044 0.0656765C92.0104 0.0477647 92.0223 0.0358235 92.0223 0.0298529V0H82.7321L75.9555 27.9841Z" fill="white"/>
<path d="M42.4963 28.3244C42.5322 30.9157 43.4098 33.1547 45.1174 35.0234C46.831 36.9042 49.6491 37.8356 53.5598 37.8356H70.0506V37.8237C70.0506 37.8237 70.0625 37.7878 70.0685 37.746C70.0805 37.7102 70.0984 37.6386 70.1282 37.555C70.8208 35.2324 71.4955 32.6412 72.0567 30.3007H57.6318C55.2017 30.3007 53.5718 29.5962 52.7478 28.1812C51.9179 26.7721 51.6612 25.2257 51.9597 23.5539C52.5866 21.1956 53.6255 19.488 55.1002 18.4252C56.563 17.3565 58.3065 16.8251 60.3245 16.8251H66.1339C66.1339 16.9087 66.0981 16.9863 66.0742 17.0639L65.3099 19.9835H59.9245C58.0736 20.3298 56.8138 21.0642 56.1152 22.1986C55.4286 23.345 55.2495 24.4615 55.566 25.5601C55.8943 26.6587 56.6645 27.3154 57.8885 27.5244H66.4085C68.2952 27.5244 69.9551 26.987 71.388 25.8944C72.8329 24.8137 73.7762 23.3689 74.23 21.5598L75.2987 17.6072C75.9077 15.3504 75.3943 13.3084 73.9613 11.5352C72.5284 9.77383 70.588 8.88422 68.1579 8.88422H61.2679C56.0555 9.11707 51.6194 11.0157 47.9714 14.5981C44.3174 18.1804 42.4963 22.7599 42.4963 28.3125" fill="white"/>
<path fill-rule="evenodd" clip-rule="evenodd" d="M193.212 8.89615H183.844L179.121 28.008C178.56 30.6291 179.032 32.9218 180.536 34.8861C182.041 36.8504 184.071 37.8356 186.638 37.8356H196.191H205.559L210.282 18.7237C210.843 16.1026 210.371 13.8099 208.867 11.8456C207.362 9.8813 205.332 8.89615 202.765 8.89615H196.358H196.37H193.212ZM198.156 29.8768H190.047C189.516 29.8768 189.122 29.6857 188.835 29.3096C188.555 28.9334 188.441 28.4976 188.501 28.008L191.248 16.8609H199.356C199.887 16.8609 200.281 17.052 200.568 17.4281C200.848 17.8043 200.962 18.2401 200.902 18.7297L198.156 29.8768Z" fill="#0199ED"/>
<path d="M41.4455 2.93753C39.8156 0.979176 37.6661 0 35.0152 0H16.4944C12.5897 0 9.90292 2.08971 8.41624 6.27509C8.22518 7.05723 8.04606 7.79759 7.86098 8.53794L18.5364 8.65735V8.66929H32.6329C32.9792 8.66929 33.2599 8.79467 33.4808 9.06335C33.7136 9.32606 33.839 9.6425 33.7435 9.98879L33.033 12.5323C32.8897 13.1293 32.5732 13.6129 32.0777 13.9652C31.5881 14.3234 31.0149 14.5026 30.382 14.5026H6.3743L5.62201 17.6849L3.59201 26.3064C2.64865 30.038 1.61574 33.9607 0.833596 37.7281C0.821655 37.7759 0.821655 37.8058 0.821655 37.8177V37.8296H29.7909C33.6838 37.8296 36.3825 35.7399 37.8871 31.5665C38.0423 30.9575 38.1736 30.4201 38.299 29.9544C38.4065 29.5484 39.1289 26.9811 39.1289 26.6467C39.5827 24.4018 39.117 22.3598 37.7497 20.5209C37.499 20.3 37.296 20.1149 37.1407 19.9836C36.9795 19.8582 36.8541 19.7507 36.7765 19.6731C36.687 19.5955 36.6332 19.5477 36.5914 19.5178C36.5556 19.488 36.5258 19.4701 36.5138 19.4581L36.5019 19.4462C36.6332 19.3925 38.5319 18.5088 38.5916 18.5088C39.1528 18.2103 39.6424 17.7864 40.0544 17.255C40.4664 16.7176 40.8186 16.2042 41.0933 15.7146C41.8456 14.4548 42.3172 13.2487 42.5083 12.1024C42.6038 11.7083 42.6814 11.368 42.7471 11.0993C42.8128 10.8306 42.8606 10.5978 42.9024 10.4246C42.9382 10.2396 42.968 10.1082 42.9919 10.0127C43.0098 9.91715 43.0218 9.85147 43.0277 9.79773C43.0397 9.74997 43.0456 9.72012 43.0576 9.70817C43.0695 9.70817 43.0695 9.69623 43.0695 9.69623C43.6188 7.13485 43.0695 4.87797 41.4336 2.91962L41.4455 2.93753ZM29.6775 26.5094C29.5999 26.79 29.5402 27.0288 29.4924 27.2318C29.4446 27.4229 29.4088 27.5961 29.379 27.7214C29.3491 27.8588 29.3312 27.9543 29.3133 28.02C29.2954 28.0856 29.2775 28.1334 29.2655 28.1752C29.2536 28.211 29.2536 28.2349 29.2536 28.2349C29.2357 28.5155 29.1163 28.7484 28.8954 28.9096C28.6804 29.0827 28.4714 29.1723 28.2565 29.1723H12.2494C12.4225 28.4319 12.5777 27.7871 12.721 27.2378C12.8584 26.6766 12.9718 26.1989 13.0673 25.781L13.6405 23.3211H27.0086C27.9341 23.3211 28.6565 23.6495 29.176 24.2943C29.6894 24.9511 29.8506 25.6795 29.6656 26.5094H29.6775Z" fill="white"/>
<path fill-rule="evenodd" clip-rule="evenodd" d="M6.64893 10.0783L5.62199 14.3771H1.17987C0.415639 14.3771 -0.145596 13.6666 0.0335211 12.9263L1.0724 8.56177L5.52646 8.62744C6.28473 8.63938 6.83402 9.34988 6.6549 10.0843L6.64893 10.0783Z" fill="#0199ED"/>
<path d="M127.141 28.3244C127.177 30.9157 128.055 33.1547 129.762 35.0234C131.476 36.9042 134.294 37.8356 138.205 37.8356H154.696V37.8237C154.696 37.8237 154.708 37.7878 154.714 37.746C154.725 37.7102 154.743 37.6386 154.773 37.555C155.466 35.2324 156.14 32.6412 156.702 30.3007H142.277C139.847 30.3007 138.217 29.5962 137.393 28.1812C136.563 26.7721 136.306 25.2257 136.605 23.5539C137.232 21.1956 138.271 19.488 139.745 18.4252C141.208 17.3565 142.951 16.8251 144.97 16.8251H150.779C150.779 16.9087 150.743 16.9863 150.719 17.0639L149.955 19.9835H144.57C142.719 20.3298 141.459 21.0642 140.76 22.1986C140.074 23.345 139.895 24.4615 140.211 25.5601C140.539 26.6587 141.31 27.3154 142.534 27.5244H151.054C152.94 27.5244 154.6 26.987 156.033 25.8944C157.478 24.8137 158.421 23.3689 158.875 21.5598L159.944 17.6072C160.553 15.3504 160.039 13.3084 158.606 11.5352C157.173 9.77383 155.233 8.88422 152.803 8.88422H145.913C140.701 9.11707 136.264 11.0157 132.616 14.5981C128.962 18.1804 127.141 22.7599 127.141 28.3125" fill="#0199ED"/>
</svg>
