<svg width="202" height="37" viewBox="0 0 202 37" fill="none" xmlns="http://www.w3.org/2000/svg">
<path d="M156.646 16.2023L151.719 36.3061H160.605L165.016 18.4768C165.165 17.9039 165.457 17.4112 165.916 17.033C166.368 16.6434 166.878 16.4487 167.434 16.4487H172.264L174.051 8.53088H165.463C160.874 9.1611 157.946 11.7221 156.657 16.1966" fill="#040605"/>
<path d="M120.999 17.9668C121.537 15.4517 121.085 13.2516 119.641 11.3667C118.197 9.48182 116.249 8.5365 113.786 8.5365H107.638V8.56515H96.6439L90.0323 36.306H99.0272L103.817 16.1735H110.514C111.024 16.1735 111.402 16.3569 111.677 16.7178C111.947 17.0788 112.055 17.497 111.998 17.9668L107.478 36.306H116.467L120.999 17.9668Z" fill="#040605"/>
<path d="M72.8848 26.8528C72.3577 29.3565 72.7988 31.5622 74.2254 33.4529C75.6405 35.3492 77.5713 36.3003 80.0062 36.3003H86.1021L87.8953 28.6346H83.2604C82.7505 28.6346 82.3609 28.4513 82.0973 28.0903C81.8281 27.7294 81.7192 27.3111 81.7765 26.8528C81.9713 26.0736 82.1546 25.3575 82.3151 24.7101C82.4812 24.0627 82.6302 23.4554 82.7677 22.8997C82.8994 22.3382 83.0198 21.8283 83.1286 21.3642C83.2375 20.9002 83.3406 20.4877 83.4265 20.1038C83.5182 19.7257 83.6041 19.3819 83.6786 19.084C83.7531 18.7861 83.8161 18.5225 83.8791 18.2876C83.9422 18.047 83.988 17.8465 84.0281 17.6746C84.0625 17.497 84.0911 17.3538 84.1198 17.222C84.1484 17.1017 84.1656 16.9986 84.1828 16.9184C84.2 16.8324 84.2172 16.7694 84.2286 16.7121C84.2401 16.6548 84.2458 16.6204 84.2573 16.6033C84.2687 16.5861 84.2687 16.5746 84.2687 16.5689V16.5517H90.7427L92.5073 8.50788H86.1078C86.2739 7.89485 86.4229 7.32193 86.5604 6.78911C86.6922 6.25057 86.8182 5.76359 86.9213 5.31098C87.0302 4.8641 87.1333 4.4516 87.2364 4.07347C87.3396 3.69534 87.4312 3.34013 87.5057 3.03075C87.5859 2.71565 87.6604 2.42918 87.7292 2.18856C87.7922 1.94793 87.838 1.72449 87.8838 1.52397C87.9297 1.32918 87.9755 1.15157 88.0213 0.996882C88.0672 0.847923 88.1073 0.710422 88.1302 0.607296C88.1588 0.498441 88.176 0.406774 88.1932 0.332294C88.2104 0.269273 88.2276 0.200522 88.2505 0.154689C88.2677 0.108855 88.2792 0.0802089 88.2849 0.0630213C88.2906 0.0458337 88.3021 0.0343753 88.3021 0.0286461V0H79.3874L72.8848 26.8528Z" fill="white"/>
<path d="M40.7783 27.1793C40.8127 29.6658 41.6549 31.8143 43.2934 33.6075C44.9377 35.4122 47.6419 36.306 51.3945 36.306H67.2186V36.2945C67.2186 36.2945 67.2301 36.2601 67.2358 36.22C67.2473 36.1856 67.2645 36.1169 67.2931 36.0367C67.9577 33.808 68.6051 31.3215 69.1436 29.0757H55.3019C52.9701 29.0757 51.406 28.3997 50.6154 27.0418C49.819 25.6897 49.5727 24.2059 49.8591 22.6017C50.4607 20.3387 51.4576 18.7001 52.8727 17.6803C54.2763 16.6548 55.9493 16.1449 57.8857 16.1449H63.4603C63.4603 16.2251 63.4259 16.2996 63.403 16.374L62.6696 19.1756H57.5019C55.7258 19.5079 54.517 20.2126 53.8466 21.3012C53.1878 22.4012 53.0159 23.4725 53.3196 24.5267C53.6347 25.5809 54.3737 26.2111 55.5482 26.4116H63.7238C65.5342 26.4116 67.127 25.896 68.502 24.8475C69.8884 23.8106 70.7937 22.4241 71.2291 20.6881L72.2546 16.8954C72.839 14.7298 72.3463 12.7704 70.9713 11.0688C69.5962 9.37868 67.7343 8.52502 65.4025 8.52502H58.791C53.7894 8.74846 49.5326 10.5704 46.032 14.0079C42.5257 17.4454 40.7783 21.8397 40.7783 27.1679" fill="white"/>
<path fill-rule="evenodd" clip-rule="evenodd" d="M185.401 8.5365H176.412L171.88 26.8757C171.341 29.3908 171.794 31.5908 173.238 33.4757C174.681 35.3607 176.629 36.306 179.093 36.306H188.26H197.249L201.781 17.9668C202.319 15.4517 201.866 13.2516 200.423 11.3667C198.979 9.48182 197.031 8.5365 194.567 8.5365H188.42H188.431H185.401ZM190.145 28.6689H182.364C181.854 28.6689 181.476 28.4856 181.201 28.1247C180.932 27.7637 180.823 27.3455 180.88 26.8757L183.516 16.1793H191.296C191.806 16.1793 192.184 16.3626 192.459 16.7235C192.728 17.0845 192.837 17.5027 192.78 17.9725L190.145 28.6689Z" fill="#040605"/>
<path d="M39.77 2.81877C38.2059 0.93959 36.1434 0 33.5996 0H15.8276C12.0807 0 9.50258 2.00522 8.07601 6.0214C7.89267 6.77193 7.7208 7.48235 7.54319 8.19277L17.787 8.30735V8.31881H31.3137C31.646 8.31881 31.9152 8.43913 32.1272 8.69694C32.3507 8.94903 32.471 9.25267 32.3793 9.58497L31.6975 12.0256C31.56 12.5985 31.2564 13.0626 30.7809 13.4006C30.3111 13.7444 29.7611 13.9163 29.1538 13.9163H6.11662L5.39474 16.9699L3.44681 25.2429C2.54159 28.8237 1.55044 32.5877 0.799911 36.2029C0.788452 36.2487 0.788452 36.2774 0.788452 36.2888V36.3003H28.5866C32.322 36.3003 34.9116 34.295 36.3554 30.2903C36.5043 29.706 36.6304 29.1903 36.7507 28.7434C36.8538 28.3539 37.5471 25.8903 37.5471 25.5695C37.9825 23.4153 37.5356 21.4559 36.2236 19.6913C35.983 19.4793 35.7882 19.3017 35.6392 19.1757C35.4845 19.0554 35.3642 18.9522 35.2897 18.8777C35.2038 18.8033 35.1522 18.7574 35.1121 18.7288C35.0778 18.7001 35.0491 18.683 35.0377 18.6715L35.0262 18.66C35.1522 18.6085 36.9741 17.7605 37.0314 17.7605C37.57 17.4741 38.0398 17.0673 38.4351 16.5574C38.8304 16.0418 39.1684 15.5491 39.432 15.0793C40.1539 13.8704 40.6065 12.7131 40.7898 11.6131C40.8815 11.235 40.9559 10.9084 41.019 10.6506C41.082 10.3928 41.1278 10.1693 41.1679 10.0032C41.2023 9.82559 41.2309 9.69955 41.2539 9.60789C41.271 9.51622 41.2825 9.4532 41.2882 9.40163C41.2997 9.3558 41.3054 9.32715 41.3169 9.31569C41.3283 9.31569 41.3283 9.30424 41.3283 9.30424C41.8554 6.84641 41.3283 4.68076 39.7585 2.80158L39.77 2.81877ZM28.4777 25.4377C28.4032 25.707 28.3459 25.9361 28.3001 26.1309C28.2543 26.3143 28.2199 26.4804 28.1913 26.6007C28.1626 26.7325 28.1454 26.8242 28.1282 26.8872C28.111 26.9502 28.0939 26.996 28.0824 27.0361C28.0709 27.0705 28.0709 27.0934 28.0709 27.0934C28.0538 27.3627 27.9392 27.5861 27.7272 27.7408C27.5209 27.907 27.3204 27.9929 27.1142 27.9929H11.7542C11.9203 27.2825 12.0693 26.6637 12.2068 26.1367C12.3385 25.5981 12.4474 25.1398 12.5391 24.7387L13.0891 22.3783H25.9168C26.8048 22.3783 27.498 22.6934 27.9965 23.3122C28.4892 23.9424 28.6439 24.6413 28.4663 25.4377H28.4777Z" fill="white"/>
<path fill-rule="evenodd" clip-rule="evenodd" d="M6.38013 9.67089L5.39471 13.7959H1.13217C0.398835 13.7959 -0.13971 13.1141 0.032166 12.4037L1.02905 8.21567L5.30304 8.27869C6.03065 8.29015 6.55774 8.97192 6.38586 9.67662L6.38013 9.67089Z" fill="#010101"/>
<path d="M122.001 27.1793C122.036 29.6658 122.878 31.8143 124.516 33.6075C126.161 35.4122 128.865 36.306 132.618 36.306H148.442V36.2945C148.442 36.2945 148.453 36.2601 148.459 36.22C148.47 36.1856 148.487 36.1169 148.516 36.0367C149.181 33.808 149.828 31.3215 150.367 29.0757H136.525C134.193 29.0757 132.629 28.3997 131.838 27.0418C131.042 25.6897 130.796 24.2059 131.082 22.6017C131.684 20.3387 132.681 18.7001 134.096 17.6803C135.499 16.6548 137.172 16.1449 139.109 16.1449H144.683C144.683 16.2251 144.649 16.2996 144.626 16.374L143.893 19.1756H138.725C136.949 19.5079 135.74 20.2126 135.07 21.3012C134.411 22.4012 134.239 23.4725 134.543 24.5267C134.858 25.5809 135.597 26.2111 136.771 26.4116H144.947C146.757 26.4116 148.35 25.896 149.725 24.8475C151.111 23.8106 152.017 22.4241 152.452 20.6881L153.478 16.8954C154.062 14.7298 153.569 12.7704 152.194 11.0688C150.819 9.37868 148.957 8.52502 146.625 8.52502H140.014C135.012 8.74846 130.756 10.5704 127.255 14.0079C123.749 17.4454 122.001 21.8397 122.001 27.1679" fill="#040605"/>
</svg>
